<mxfile host="Electron" modified="2024-07-08T14:20:12.914Z" agent="Mozilla/5.0 (Windows NT 10.0; Win64; x64) AppleWebKit/537.36 (KHTML, like Gecko) draw.io/22.1.16 Chrome/120.0.6099.109 Electron/28.1.0 Safari/537.36" etag="1ZMK-eGsPQSU_wLehVBj" version="22.1.16" type="device" pages="2">
  <diagram id="u_2IftlO7BcHo2XgmVpU" name="main_class">
    <mxGraphModel dx="1434" dy="836" grid="1" gridSize="10" guides="1" tooltips="1" connect="1" arrows="1" fold="1" page="1" pageScale="1" pageWidth="850" pageHeight="1100" math="0" shadow="0">
      <root>
        <mxCell id="0" />
        <mxCell id="1" parent="0" />
        <mxCell id="M4xrblB4g5WBxaB9cq_x-1" value="Encoder" style="swimlane;fontStyle=0;childLayout=stackLayout;horizontal=1;startSize=26;fillColor=none;horizontalStack=0;resizeParent=1;resizeParentMax=0;resizeLast=0;collapsible=1;marginBottom=0;whiteSpace=wrap;html=1;" parent="1" vertex="1">
          <mxGeometry x="520" y="320" width="160" height="104" as="geometry" />
        </mxCell>
        <mxCell id="M4xrblB4g5WBxaB9cq_x-2" value="- name" style="text;strokeColor=none;fillColor=none;align=left;verticalAlign=top;spacingLeft=4;spacingRight=4;overflow=hidden;rotatable=0;points=[[0,0.5],[1,0.5]];portConstraint=eastwest;whiteSpace=wrap;html=1;" parent="M4xrblB4g5WBxaB9cq_x-1" vertex="1">
          <mxGeometry y="26" width="160" height="26" as="geometry" />
        </mxCell>
        <mxCell id="M4xrblB4g5WBxaB9cq_x-3" value="- points" style="text;strokeColor=none;fillColor=none;align=left;verticalAlign=top;spacingLeft=4;spacingRight=4;overflow=hidden;rotatable=0;points=[[0,0.5],[1,0.5]];portConstraint=eastwest;whiteSpace=wrap;html=1;" parent="M4xrblB4g5WBxaB9cq_x-1" vertex="1">
          <mxGeometry y="52" width="160" height="26" as="geometry" />
        </mxCell>
        <mxCell id="M4xrblB4g5WBxaB9cq_x-4" value="- secredCode" style="text;strokeColor=none;fillColor=none;align=left;verticalAlign=top;spacingLeft=4;spacingRight=4;overflow=hidden;rotatable=0;points=[[0,0.5],[1,0.5]];portConstraint=eastwest;whiteSpace=wrap;html=1;" parent="M4xrblB4g5WBxaB9cq_x-1" vertex="1">
          <mxGeometry y="78" width="160" height="26" as="geometry" />
        </mxCell>
        <mxCell id="M4xrblB4g5WBxaB9cq_x-5" value="Decoder" style="swimlane;fontStyle=0;childLayout=stackLayout;horizontal=1;startSize=26;fillColor=none;horizontalStack=0;resizeParent=1;resizeParentMax=0;resizeLast=0;collapsible=1;marginBottom=0;whiteSpace=wrap;html=1;" parent="1" vertex="1">
          <mxGeometry x="200" y="320" width="160" height="76" as="geometry" />
        </mxCell>
        <mxCell id="M4xrblB4g5WBxaB9cq_x-6" value="- name" style="text;strokeColor=none;fillColor=none;align=left;verticalAlign=top;spacingLeft=4;spacingRight=4;overflow=hidden;rotatable=0;points=[[0,0.5],[1,0.5]];portConstraint=eastwest;whiteSpace=wrap;html=1;" parent="M4xrblB4g5WBxaB9cq_x-5" vertex="1">
          <mxGeometry y="26" width="160" height="24" as="geometry" />
        </mxCell>
        <mxCell id="M4xrblB4g5WBxaB9cq_x-7" value="- points" style="text;strokeColor=none;fillColor=none;align=left;verticalAlign=top;spacingLeft=4;spacingRight=4;overflow=hidden;rotatable=0;points=[[0,0.5],[1,0.5]];portConstraint=eastwest;whiteSpace=wrap;html=1;" parent="M4xrblB4g5WBxaB9cq_x-5" vertex="1">
          <mxGeometry y="50" width="160" height="26" as="geometry" />
        </mxCell>
        <mxCell id="M4xrblB4g5WBxaB9cq_x-9" value="Game" style="swimlane;fontStyle=0;childLayout=stackLayout;horizontal=1;startSize=26;fillColor=none;horizontalStack=0;resizeParent=1;resizeParentMax=0;resizeLast=0;collapsible=1;marginBottom=0;whiteSpace=wrap;html=1;" parent="1" vertex="1">
          <mxGeometry x="360" y="560" width="160" height="130" as="geometry" />
        </mxCell>
        <mxCell id="M4xrblB4g5WBxaB9cq_x-10" value="- ID" style="text;strokeColor=none;fillColor=none;align=left;verticalAlign=top;spacingLeft=4;spacingRight=4;overflow=hidden;rotatable=0;points=[[0,0.5],[1,0.5]];portConstraint=eastwest;whiteSpace=wrap;html=1;" parent="M4xrblB4g5WBxaB9cq_x-9" vertex="1">
          <mxGeometry y="26" width="160" height="26" as="geometry" />
        </mxCell>
        <mxCell id="M4xrblB4g5WBxaB9cq_x-11" value="- state" style="text;strokeColor=none;fillColor=none;align=left;verticalAlign=top;spacingLeft=4;spacingRight=4;overflow=hidden;rotatable=0;points=[[0,0.5],[1,0.5]];portConstraint=eastwest;whiteSpace=wrap;html=1;" parent="M4xrblB4g5WBxaB9cq_x-9" vertex="1">
          <mxGeometry y="52" width="160" height="26" as="geometry" />
        </mxCell>
        <mxCell id="Z6eYnivgh-2TaofB75U0-2" value="- difficulty" style="text;strokeColor=none;fillColor=none;align=left;verticalAlign=top;spacingLeft=4;spacingRight=4;overflow=hidden;rotatable=0;points=[[0,0.5],[1,0.5]];portConstraint=eastwest;whiteSpace=wrap;html=1;" parent="M4xrblB4g5WBxaB9cq_x-9" vertex="1">
          <mxGeometry y="78" width="160" height="26" as="geometry" />
        </mxCell>
        <mxCell id="3QMlb2VVYqPLBX-GX4cm-1" value="- sequences" style="text;strokeColor=none;fillColor=none;align=left;verticalAlign=top;spacingLeft=4;spacingRight=4;overflow=hidden;rotatable=0;points=[[0,0.5],[1,0.5]];portConstraint=eastwest;whiteSpace=wrap;html=1;" vertex="1" parent="M4xrblB4g5WBxaB9cq_x-9">
          <mxGeometry y="104" width="160" height="26" as="geometry" />
        </mxCell>
        <mxCell id="M4xrblB4g5WBxaB9cq_x-15" value="" style="endArrow=none;html=1;rounded=0;entryX=0;entryY=0.5;entryDx=0;entryDy=0;" parent="1" source="M4xrblB4g5WBxaB9cq_x-5" target="M4xrblB4g5WBxaB9cq_x-10" edge="1">
          <mxGeometry relative="1" as="geometry">
            <mxPoint x="325" y="600" as="sourcePoint" />
            <mxPoint x="485" y="600" as="targetPoint" />
            <Array as="points">
              <mxPoint x="280" y="600" />
            </Array>
          </mxGeometry>
        </mxCell>
        <mxCell id="M4xrblB4g5WBxaB9cq_x-16" value="1" style="resizable=0;html=1;whiteSpace=wrap;align=left;verticalAlign=bottom;" parent="M4xrblB4g5WBxaB9cq_x-15" connectable="0" vertex="1">
          <mxGeometry x="-1" relative="1" as="geometry">
            <mxPoint x="10" y="26" as="offset" />
          </mxGeometry>
        </mxCell>
        <mxCell id="M4xrblB4g5WBxaB9cq_x-17" value="*" style="resizable=0;html=1;whiteSpace=wrap;align=right;verticalAlign=bottom;" parent="M4xrblB4g5WBxaB9cq_x-15" connectable="0" vertex="1">
          <mxGeometry x="1" relative="1" as="geometry">
            <mxPoint x="-10" y="-9" as="offset" />
          </mxGeometry>
        </mxCell>
        <mxCell id="M4xrblB4g5WBxaB9cq_x-18" value="" style="endArrow=none;html=1;rounded=0;exitX=1;exitY=0.5;exitDx=0;exitDy=0;" parent="1" source="M4xrblB4g5WBxaB9cq_x-10" target="M4xrblB4g5WBxaB9cq_x-1" edge="1">
          <mxGeometry relative="1" as="geometry">
            <mxPoint x="325" y="600" as="sourcePoint" />
            <mxPoint x="485" y="600" as="targetPoint" />
            <Array as="points">
              <mxPoint x="600" y="600" />
            </Array>
          </mxGeometry>
        </mxCell>
        <mxCell id="M4xrblB4g5WBxaB9cq_x-19" value="*" style="resizable=0;html=1;whiteSpace=wrap;align=left;verticalAlign=bottom;" parent="M4xrblB4g5WBxaB9cq_x-18" connectable="0" vertex="1">
          <mxGeometry x="-1" relative="1" as="geometry">
            <mxPoint x="10" y="-9" as="offset" />
          </mxGeometry>
        </mxCell>
        <mxCell id="M4xrblB4g5WBxaB9cq_x-20" value="1" style="resizable=0;html=1;whiteSpace=wrap;align=right;verticalAlign=bottom;" parent="M4xrblB4g5WBxaB9cq_x-18" connectable="0" vertex="1">
          <mxGeometry x="1" relative="1" as="geometry">
            <mxPoint x="-10" y="26" as="offset" />
          </mxGeometry>
        </mxCell>
        <mxCell id="Z6eYnivgh-2TaofB75U0-3" value="Attempt" style="swimlane;fontStyle=0;childLayout=stackLayout;horizontal=1;startSize=26;fillColor=none;horizontalStack=0;resizeParent=1;resizeParentMax=0;resizeLast=0;collapsible=1;marginBottom=0;whiteSpace=wrap;html=1;" parent="1" vertex="1">
          <mxGeometry x="192.5" y="130" width="175" height="78" as="geometry" />
        </mxCell>
        <mxCell id="Z6eYnivgh-2TaofB75U0-4" value="- sequence" style="text;strokeColor=none;fillColor=none;align=left;verticalAlign=top;spacingLeft=4;spacingRight=4;overflow=hidden;rotatable=0;points=[[0,0.5],[1,0.5]];portConstraint=eastwest;whiteSpace=wrap;html=1;" parent="Z6eYnivgh-2TaofB75U0-3" vertex="1">
          <mxGeometry y="26" width="175" height="26" as="geometry" />
        </mxCell>
        <mxCell id="Z6eYnivgh-2TaofB75U0-5" value="- hint" style="text;strokeColor=none;fillColor=none;align=left;verticalAlign=top;spacingLeft=4;spacingRight=4;overflow=hidden;rotatable=0;points=[[0,0.5],[1,0.5]];portConstraint=eastwest;whiteSpace=wrap;html=1;" parent="Z6eYnivgh-2TaofB75U0-3" vertex="1">
          <mxGeometry y="52" width="175" height="26" as="geometry" />
        </mxCell>
        <mxCell id="Z6eYnivgh-2TaofB75U0-7" value="" style="endArrow=none;html=1;edgeStyle=orthogonalEdgeStyle;rounded=0;entryX=0.5;entryY=0;entryDx=0;entryDy=0;" parent="1" source="Z6eYnivgh-2TaofB75U0-3" target="M4xrblB4g5WBxaB9cq_x-5" edge="1">
          <mxGeometry relative="1" as="geometry">
            <mxPoint x="320" y="430" as="sourcePoint" />
            <mxPoint x="480" y="430" as="targetPoint" />
          </mxGeometry>
        </mxCell>
        <mxCell id="Z6eYnivgh-2TaofB75U0-8" value="*" style="edgeLabel;resizable=0;html=1;align=left;verticalAlign=bottom;" parent="Z6eYnivgh-2TaofB75U0-7" connectable="0" vertex="1">
          <mxGeometry x="-1" relative="1" as="geometry">
            <mxPoint x="10" y="22" as="offset" />
          </mxGeometry>
        </mxCell>
        <mxCell id="Z6eYnivgh-2TaofB75U0-9" value="1" style="edgeLabel;resizable=0;html=1;align=right;verticalAlign=bottom;" parent="Z6eYnivgh-2TaofB75U0-7" connectable="0" vertex="1">
          <mxGeometry x="1" relative="1" as="geometry">
            <mxPoint x="20" y="-10" as="offset" />
          </mxGeometry>
        </mxCell>
      </root>
    </mxGraphModel>
  </diagram>
  <diagram id="C5RBs43oDa-KdzZeNtuy" name="Page-1">
    <mxGraphModel dx="3628" dy="1838" grid="1" gridSize="10" guides="1" tooltips="1" connect="1" arrows="1" fold="1" page="1" pageScale="1" pageWidth="827" pageHeight="1169" math="0" shadow="0">
      <root>
        <mxCell id="WIyWlLk6GJQsqaUBKTNV-0" />
        <mxCell id="WIyWlLk6GJQsqaUBKTNV-1" parent="WIyWlLk6GJQsqaUBKTNV-0" />
        <mxCell id="bCA4lGiRR6grdfDmBy-x-31" value="Player (abstract)" style="swimlane;fontStyle=1;align=center;verticalAlign=top;childLayout=stackLayout;horizontal=1;startSize=26;horizontalStack=0;resizeParent=1;resizeParentMax=0;resizeLast=0;collapsible=1;marginBottom=0;whiteSpace=wrap;html=1;" parent="WIyWlLk6GJQsqaUBKTNV-1" vertex="1">
          <mxGeometry x="-833" y="350" width="160" height="190" as="geometry" />
        </mxCell>
        <mxCell id="bCA4lGiRR6grdfDmBy-x-32" value="- name: String" style="text;strokeColor=none;fillColor=none;align=left;verticalAlign=top;spacingLeft=4;spacingRight=4;overflow=hidden;rotatable=0;points=[[0,0.5],[1,0.5]];portConstraint=eastwest;whiteSpace=wrap;html=1;" parent="bCA4lGiRR6grdfDmBy-x-31" vertex="1">
          <mxGeometry y="26" width="160" height="26" as="geometry" />
        </mxCell>
        <mxCell id="bCA4lGiRR6grdfDmBy-x-35" value="- points: int" style="text;strokeColor=none;fillColor=none;align=left;verticalAlign=top;spacingLeft=4;spacingRight=4;overflow=hidden;rotatable=0;points=[[0,0.5],[1,0.5]];portConstraint=eastwest;whiteSpace=wrap;html=1;" parent="bCA4lGiRR6grdfDmBy-x-31" vertex="1">
          <mxGeometry y="52" width="160" height="26" as="geometry" />
        </mxCell>
        <mxCell id="bCA4lGiRR6grdfDmBy-x-33" value="" style="line;strokeWidth=1;fillColor=none;align=left;verticalAlign=middle;spacingTop=-1;spacingLeft=3;spacingRight=3;rotatable=0;labelPosition=right;points=[];portConstraint=eastwest;strokeColor=inherit;" parent="bCA4lGiRR6grdfDmBy-x-31" vertex="1">
          <mxGeometry y="78" width="160" height="8" as="geometry" />
        </mxCell>
        <mxCell id="bCA4lGiRR6grdfDmBy-x-34" value="+ setName(String): void" style="text;strokeColor=none;fillColor=none;align=left;verticalAlign=top;spacingLeft=4;spacingRight=4;overflow=hidden;rotatable=0;points=[[0,0.5],[1,0.5]];portConstraint=eastwest;whiteSpace=wrap;html=1;" parent="bCA4lGiRR6grdfDmBy-x-31" vertex="1">
          <mxGeometry y="86" width="160" height="26" as="geometry" />
        </mxCell>
        <mxCell id="bCA4lGiRR6grdfDmBy-x-36" value="+ getName(): String" style="text;strokeColor=none;fillColor=none;align=left;verticalAlign=top;spacingLeft=4;spacingRight=4;overflow=hidden;rotatable=0;points=[[0,0.5],[1,0.5]];portConstraint=eastwest;whiteSpace=wrap;html=1;" parent="bCA4lGiRR6grdfDmBy-x-31" vertex="1">
          <mxGeometry y="112" width="160" height="26" as="geometry" />
        </mxCell>
        <mxCell id="9f9jRmOfhNBoXoYCQpTa-0" value="+ addPoint(): void" style="text;strokeColor=none;fillColor=none;align=left;verticalAlign=top;spacingLeft=4;spacingRight=4;overflow=hidden;rotatable=0;points=[[0,0.5],[1,0.5]];portConstraint=eastwest;whiteSpace=wrap;html=1;" parent="bCA4lGiRR6grdfDmBy-x-31" vertex="1">
          <mxGeometry y="138" width="160" height="26" as="geometry" />
        </mxCell>
        <mxCell id="9f9jRmOfhNBoXoYCQpTa-1" value="+ getPoint(): int" style="text;strokeColor=none;fillColor=none;align=left;verticalAlign=top;spacingLeft=4;spacingRight=4;overflow=hidden;rotatable=0;points=[[0,0.5],[1,0.5]];portConstraint=eastwest;whiteSpace=wrap;html=1;" parent="bCA4lGiRR6grdfDmBy-x-31" vertex="1">
          <mxGeometry y="164" width="160" height="26" as="geometry" />
        </mxCell>
        <mxCell id="9f9jRmOfhNBoXoYCQpTa-2" value="Encoder" style="swimlane;fontStyle=1;align=center;verticalAlign=top;childLayout=stackLayout;horizontal=1;startSize=26;horizontalStack=0;resizeParent=1;resizeParentMax=0;resizeLast=0;collapsible=1;marginBottom=0;whiteSpace=wrap;html=1;" parent="WIyWlLk6GJQsqaUBKTNV-1" vertex="1">
          <mxGeometry x="-1060" y="610" width="280" height="150" as="geometry" />
        </mxCell>
        <mxCell id="9f9jRmOfhNBoXoYCQpTa-3" value="- secretCode: Arraylist&amp;lt;Color&amp;gt;" style="text;strokeColor=none;fillColor=none;align=left;verticalAlign=top;spacingLeft=4;spacingRight=4;overflow=hidden;rotatable=0;points=[[0,0.5],[1,0.5]];portConstraint=eastwest;whiteSpace=wrap;html=1;" parent="9f9jRmOfhNBoXoYCQpTa-2" vertex="1">
          <mxGeometry y="26" width="280" height="26" as="geometry" />
        </mxCell>
        <mxCell id="9f9jRmOfhNBoXoYCQpTa-5" value="" style="line;strokeWidth=1;fillColor=none;align=left;verticalAlign=middle;spacingTop=-1;spacingLeft=3;spacingRight=3;rotatable=0;labelPosition=right;points=[];portConstraint=eastwest;strokeColor=inherit;" parent="9f9jRmOfhNBoXoYCQpTa-2" vertex="1">
          <mxGeometry y="52" width="280" height="8" as="geometry" />
        </mxCell>
        <mxCell id="9f9jRmOfhNBoXoYCQpTa-9" value="+ setSecretCode(Arraylist&amp;lt;Color&amp;gt;): void" style="text;strokeColor=none;fillColor=none;align=left;verticalAlign=top;spacingLeft=4;spacingRight=4;overflow=hidden;rotatable=0;points=[[0,0.5],[1,0.5]];portConstraint=eastwest;whiteSpace=wrap;html=1;" parent="9f9jRmOfhNBoXoYCQpTa-2" vertex="1">
          <mxGeometry y="60" width="280" height="30" as="geometry" />
        </mxCell>
        <mxCell id="9f9jRmOfhNBoXoYCQpTa-10" value="+ getSecretCode(): Arraylist&amp;lt;Color&amp;gt;" style="text;strokeColor=none;fillColor=none;align=left;verticalAlign=top;spacingLeft=4;spacingRight=4;overflow=hidden;rotatable=0;points=[[0,0.5],[1,0.5]];portConstraint=eastwest;whiteSpace=wrap;html=1;" parent="9f9jRmOfhNBoXoYCQpTa-2" vertex="1">
          <mxGeometry y="90" width="280" height="30" as="geometry" />
        </mxCell>
        <mxCell id="9f9jRmOfhNBoXoYCQpTa-11" value="+ getColorFromSecretCode(int index): Color" style="text;strokeColor=none;fillColor=none;align=left;verticalAlign=top;spacingLeft=4;spacingRight=4;overflow=hidden;rotatable=0;points=[[0,0.5],[1,0.5]];portConstraint=eastwest;whiteSpace=wrap;html=1;" parent="9f9jRmOfhNBoXoYCQpTa-2" vertex="1">
          <mxGeometry y="120" width="280" height="30" as="geometry" />
        </mxCell>
        <mxCell id="9f9jRmOfhNBoXoYCQpTa-12" value="Decoder" style="swimlane;fontStyle=1;align=center;verticalAlign=top;childLayout=stackLayout;horizontal=1;startSize=26;horizontalStack=0;resizeParent=1;resizeParentMax=0;resizeLast=0;collapsible=1;marginBottom=0;whiteSpace=wrap;html=1;" parent="WIyWlLk6GJQsqaUBKTNV-1" vertex="1">
          <mxGeometry x="-740" y="610" width="370" height="240" as="geometry" />
        </mxCell>
        <mxCell id="9f9jRmOfhNBoXoYCQpTa-13" value="- sequences: Arraylist&amp;lt;Arraylist&amp;lt;Color&amp;gt;&amp;gt;" style="text;strokeColor=none;fillColor=none;align=left;verticalAlign=top;spacingLeft=4;spacingRight=4;overflow=hidden;rotatable=0;points=[[0,0.5],[1,0.5]];portConstraint=eastwest;whiteSpace=wrap;html=1;" parent="9f9jRmOfhNBoXoYCQpTa-12" vertex="1">
          <mxGeometry y="26" width="370" height="26" as="geometry" />
        </mxCell>
        <mxCell id="9f9jRmOfhNBoXoYCQpTa-14" value="" style="line;strokeWidth=1;fillColor=none;align=left;verticalAlign=middle;spacingTop=-1;spacingLeft=3;spacingRight=3;rotatable=0;labelPosition=right;points=[];portConstraint=eastwest;strokeColor=inherit;" parent="9f9jRmOfhNBoXoYCQpTa-12" vertex="1">
          <mxGeometry y="52" width="370" height="8" as="geometry" />
        </mxCell>
        <mxCell id="9f9jRmOfhNBoXoYCQpTa-15" value="+ setSequences(Arraylist&amp;lt;&amp;gt;): void" style="text;strokeColor=none;fillColor=none;align=left;verticalAlign=top;spacingLeft=4;spacingRight=4;overflow=hidden;rotatable=0;points=[[0,0.5],[1,0.5]];portConstraint=eastwest;whiteSpace=wrap;html=1;" parent="9f9jRmOfhNBoXoYCQpTa-12" vertex="1">
          <mxGeometry y="60" width="370" height="30" as="geometry" />
        </mxCell>
        <mxCell id="9f9jRmOfhNBoXoYCQpTa-16" value="+ setSequence(Arraylist&amp;lt;&amp;gt;): void" style="text;strokeColor=none;fillColor=none;align=left;verticalAlign=top;spacingLeft=4;spacingRight=4;overflow=hidden;rotatable=0;points=[[0,0.5],[1,0.5]];portConstraint=eastwest;whiteSpace=wrap;html=1;" parent="9f9jRmOfhNBoXoYCQpTa-12" vertex="1">
          <mxGeometry y="90" width="370" height="30" as="geometry" />
        </mxCell>
        <mxCell id="9f9jRmOfhNBoXoYCQpTa-17" value="+ getSequences(): Arraylist&amp;lt;&amp;gt;" style="text;strokeColor=none;fillColor=none;align=left;verticalAlign=top;spacingLeft=4;spacingRight=4;overflow=hidden;rotatable=0;points=[[0,0.5],[1,0.5]];portConstraint=eastwest;whiteSpace=wrap;html=1;" parent="9f9jRmOfhNBoXoYCQpTa-12" vertex="1">
          <mxGeometry y="120" width="370" height="30" as="geometry" />
        </mxCell>
        <mxCell id="9f9jRmOfhNBoXoYCQpTa-18" value="+ getSequence(): Arraylist&amp;lt;&amp;gt;" style="text;strokeColor=none;fillColor=none;align=left;verticalAlign=top;spacingLeft=4;spacingRight=4;overflow=hidden;rotatable=0;points=[[0,0.5],[1,0.5]];portConstraint=eastwest;whiteSpace=wrap;html=1;" parent="9f9jRmOfhNBoXoYCQpTa-12" vertex="1">
          <mxGeometry y="150" width="370" height="30" as="geometry" />
        </mxCell>
        <mxCell id="9f9jRmOfhNBoXoYCQpTa-19" value="+ getColorFromSequence(int sequenceIndex, int colorIndex): Color" style="text;strokeColor=none;fillColor=none;align=left;verticalAlign=top;spacingLeft=4;spacingRight=4;overflow=hidden;rotatable=0;points=[[0,0.5],[1,0.5]];portConstraint=eastwest;whiteSpace=wrap;html=1;" parent="9f9jRmOfhNBoXoYCQpTa-12" vertex="1">
          <mxGeometry y="180" width="370" height="30" as="geometry" />
        </mxCell>
        <mxCell id="9f9jRmOfhNBoXoYCQpTa-216" value="+ clearSequences(): void" style="text;strokeColor=none;fillColor=none;align=left;verticalAlign=top;spacingLeft=4;spacingRight=4;overflow=hidden;rotatable=0;points=[[0,0.5],[1,0.5]];portConstraint=eastwest;whiteSpace=wrap;html=1;" parent="9f9jRmOfhNBoXoYCQpTa-12" vertex="1">
          <mxGeometry y="210" width="370" height="30" as="geometry" />
        </mxCell>
        <mxCell id="9f9jRmOfhNBoXoYCQpTa-20" value="AutoEncoderModel" style="swimlane;fontStyle=1;align=center;verticalAlign=top;childLayout=stackLayout;horizontal=1;startSize=26;horizontalStack=0;resizeParent=1;resizeParentMax=0;resizeLast=0;collapsible=1;marginBottom=0;whiteSpace=wrap;html=1;" parent="WIyWlLk6GJQsqaUBKTNV-1" vertex="1">
          <mxGeometry x="-1060" y="900" width="280" height="120" as="geometry" />
        </mxCell>
        <mxCell id="9f9jRmOfhNBoXoYCQpTa-21" value="- encoder: Encoder" style="text;strokeColor=none;fillColor=none;align=left;verticalAlign=top;spacingLeft=4;spacingRight=4;overflow=hidden;rotatable=0;points=[[0,0.5],[1,0.5]];portConstraint=eastwest;whiteSpace=wrap;html=1;" parent="9f9jRmOfhNBoXoYCQpTa-20" vertex="1">
          <mxGeometry y="26" width="280" height="26" as="geometry" />
        </mxCell>
        <mxCell id="9f9jRmOfhNBoXoYCQpTa-22" value="" style="line;strokeWidth=1;fillColor=none;align=left;verticalAlign=middle;spacingTop=-1;spacingLeft=3;spacingRight=3;rotatable=0;labelPosition=right;points=[];portConstraint=eastwest;strokeColor=inherit;" parent="9f9jRmOfhNBoXoYCQpTa-20" vertex="1">
          <mxGeometry y="52" width="280" height="8" as="geometry" />
        </mxCell>
        <mxCell id="9f9jRmOfhNBoXoYCQpTa-23" value="+ getEncoder(): Encoder" style="text;strokeColor=none;fillColor=none;align=left;verticalAlign=top;spacingLeft=4;spacingRight=4;overflow=hidden;rotatable=0;points=[[0,0.5],[1,0.5]];portConstraint=eastwest;whiteSpace=wrap;html=1;" parent="9f9jRmOfhNBoXoYCQpTa-20" vertex="1">
          <mxGeometry y="60" width="280" height="30" as="geometry" />
        </mxCell>
        <mxCell id="9f9jRmOfhNBoXoYCQpTa-24" value="+ randomGenerateSecretCode(): void" style="text;strokeColor=none;fillColor=none;align=left;verticalAlign=top;spacingLeft=4;spacingRight=4;overflow=hidden;rotatable=0;points=[[0,0.5],[1,0.5]];portConstraint=eastwest;whiteSpace=wrap;html=1;" parent="9f9jRmOfhNBoXoYCQpTa-20" vertex="1">
          <mxGeometry y="90" width="280" height="30" as="geometry" />
        </mxCell>
        <mxCell id="9f9jRmOfhNBoXoYCQpTa-31" value="Extends" style="endArrow=block;endSize=16;endFill=0;html=1;rounded=0;exitX=0.5;exitY=0;exitDx=0;exitDy=0;" parent="WIyWlLk6GJQsqaUBKTNV-1" source="9f9jRmOfhNBoXoYCQpTa-2" target="bCA4lGiRR6grdfDmBy-x-31" edge="1">
          <mxGeometry width="160" relative="1" as="geometry">
            <mxPoint x="-940" y="527" as="sourcePoint" />
            <mxPoint x="-690" y="580" as="targetPoint" />
            <Array as="points">
              <mxPoint x="-920" y="445" />
            </Array>
          </mxGeometry>
        </mxCell>
        <mxCell id="9f9jRmOfhNBoXoYCQpTa-32" value="Extends" style="endArrow=block;endSize=16;endFill=0;html=1;rounded=0;exitX=0.5;exitY=0;exitDx=0;exitDy=0;" parent="WIyWlLk6GJQsqaUBKTNV-1" source="9f9jRmOfhNBoXoYCQpTa-12" target="bCA4lGiRR6grdfDmBy-x-31" edge="1">
          <mxGeometry width="160" relative="1" as="geometry">
            <mxPoint x="-750" y="600" as="sourcePoint" />
            <mxPoint x="-590" y="600" as="targetPoint" />
            <Array as="points">
              <mxPoint x="-555" y="445" />
            </Array>
          </mxGeometry>
        </mxCell>
        <mxCell id="9f9jRmOfhNBoXoYCQpTa-33" value="Use" style="endArrow=open;endSize=12;dashed=1;html=1;rounded=0;exitX=0.5;exitY=0;exitDx=0;exitDy=0;" parent="WIyWlLk6GJQsqaUBKTNV-1" source="9f9jRmOfhNBoXoYCQpTa-20" edge="1">
          <mxGeometry width="160" relative="1" as="geometry">
            <mxPoint x="-990" y="810" as="sourcePoint" />
            <mxPoint x="-920" y="760" as="targetPoint" />
          </mxGeometry>
        </mxCell>
        <mxCell id="9f9jRmOfhNBoXoYCQpTa-35" value="DecoderModel" style="swimlane;fontStyle=1;align=center;verticalAlign=top;childLayout=stackLayout;horizontal=1;startSize=26;horizontalStack=0;resizeParent=1;resizeParentMax=0;resizeLast=0;collapsible=1;marginBottom=0;whiteSpace=wrap;html=1;" parent="WIyWlLk6GJQsqaUBKTNV-1" vertex="1">
          <mxGeometry x="-695" y="900" width="280" height="120" as="geometry" />
        </mxCell>
        <mxCell id="9f9jRmOfhNBoXoYCQpTa-36" value="- decoder: Decoder" style="text;strokeColor=none;fillColor=none;align=left;verticalAlign=top;spacingLeft=4;spacingRight=4;overflow=hidden;rotatable=0;points=[[0,0.5],[1,0.5]];portConstraint=eastwest;whiteSpace=wrap;html=1;" parent="9f9jRmOfhNBoXoYCQpTa-35" vertex="1">
          <mxGeometry y="26" width="280" height="26" as="geometry" />
        </mxCell>
        <mxCell id="9f9jRmOfhNBoXoYCQpTa-37" value="" style="line;strokeWidth=1;fillColor=none;align=left;verticalAlign=middle;spacingTop=-1;spacingLeft=3;spacingRight=3;rotatable=0;labelPosition=right;points=[];portConstraint=eastwest;strokeColor=inherit;" parent="9f9jRmOfhNBoXoYCQpTa-35" vertex="1">
          <mxGeometry y="52" width="280" height="8" as="geometry" />
        </mxCell>
        <mxCell id="9f9jRmOfhNBoXoYCQpTa-38" value="+ getDecoder(): Decoder" style="text;strokeColor=none;fillColor=none;align=left;verticalAlign=top;spacingLeft=4;spacingRight=4;overflow=hidden;rotatable=0;points=[[0,0.5],[1,0.5]];portConstraint=eastwest;whiteSpace=wrap;html=1;" parent="9f9jRmOfhNBoXoYCQpTa-35" vertex="1">
          <mxGeometry y="60" width="280" height="30" as="geometry" />
        </mxCell>
        <mxCell id="9f9jRmOfhNBoXoYCQpTa-39" value="+ defineNewSequence(): void" style="text;strokeColor=none;fillColor=none;align=left;verticalAlign=top;spacingLeft=4;spacingRight=4;overflow=hidden;rotatable=0;points=[[0,0.5],[1,0.5]];portConstraint=eastwest;whiteSpace=wrap;html=1;" parent="9f9jRmOfhNBoXoYCQpTa-35" vertex="1">
          <mxGeometry y="90" width="280" height="30" as="geometry" />
        </mxCell>
        <mxCell id="9f9jRmOfhNBoXoYCQpTa-40" value="Use" style="endArrow=open;endSize=12;dashed=1;html=1;rounded=0;exitX=0.5;exitY=0;exitDx=0;exitDy=0;" parent="WIyWlLk6GJQsqaUBKTNV-1" source="9f9jRmOfhNBoXoYCQpTa-35" target="9f9jRmOfhNBoXoYCQpTa-12" edge="1">
          <mxGeometry width="160" relative="1" as="geometry">
            <mxPoint x="-800" y="850" as="sourcePoint" />
            <mxPoint x="-560" y="840" as="targetPoint" />
          </mxGeometry>
        </mxCell>
        <mxCell id="9f9jRmOfhNBoXoYCQpTa-41" value="&amp;lt;&amp;lt;Interface&amp;gt;&amp;gt;&lt;br&gt;SequenceGeneration" style="swimlane;fontStyle=1;align=center;verticalAlign=top;childLayout=stackLayout;horizontal=1;startSize=40;horizontalStack=0;resizeParent=1;resizeParentMax=0;resizeLast=0;collapsible=1;marginBottom=0;whiteSpace=wrap;html=1;direction=east;" parent="WIyWlLk6GJQsqaUBKTNV-1" vertex="1">
          <mxGeometry x="-280" y="770" width="220" height="70" as="geometry">
            <mxRectangle x="-740" y="1000" width="150" height="40" as="alternateBounds" />
          </mxGeometry>
        </mxCell>
        <mxCell id="9f9jRmOfhNBoXoYCQpTa-42" value="+ defineNewSequence(): void" style="text;strokeColor=none;fillColor=none;align=left;verticalAlign=top;spacingLeft=4;spacingRight=4;overflow=hidden;rotatable=0;points=[[0,0.5],[1,0.5]];portConstraint=eastwest;whiteSpace=wrap;html=1;" parent="9f9jRmOfhNBoXoYCQpTa-41" vertex="1">
          <mxGeometry y="40" width="220" height="30" as="geometry" />
        </mxCell>
        <mxCell id="9f9jRmOfhNBoXoYCQpTa-43" value="" style="endArrow=block;dashed=1;endFill=0;endSize=12;html=1;rounded=0;exitX=1;exitY=0.5;exitDx=0;exitDy=0;" parent="WIyWlLk6GJQsqaUBKTNV-1" source="9f9jRmOfhNBoXoYCQpTa-38" target="9f9jRmOfhNBoXoYCQpTa-41" edge="1">
          <mxGeometry width="160" relative="1" as="geometry">
            <mxPoint x="-510" y="930" as="sourcePoint" />
            <mxPoint x="-350" y="930" as="targetPoint" />
            <Array as="points">
              <mxPoint x="-170" y="975" />
            </Array>
          </mxGeometry>
        </mxCell>
        <mxCell id="9f9jRmOfhNBoXoYCQpTa-44" value="Game" style="swimlane;fontStyle=1;align=center;verticalAlign=top;childLayout=stackLayout;horizontal=1;startSize=26;horizontalStack=0;resizeParent=1;resizeParentMax=0;resizeLast=0;collapsible=1;marginBottom=0;whiteSpace=wrap;html=1;" parent="WIyWlLk6GJQsqaUBKTNV-1" vertex="1">
          <mxGeometry x="-1790" y="352" width="170" height="346" as="geometry" />
        </mxCell>
        <mxCell id="9f9jRmOfhNBoXoYCQpTa-48" value="- title: String" style="text;strokeColor=none;fillColor=none;align=left;verticalAlign=top;spacingLeft=4;spacingRight=4;overflow=hidden;rotatable=0;points=[[0,0.5],[1,0.5]];portConstraint=eastwest;whiteSpace=wrap;html=1;" parent="9f9jRmOfhNBoXoYCQpTa-44" vertex="1">
          <mxGeometry y="26" width="170" height="26" as="geometry" />
        </mxCell>
        <mxCell id="9f9jRmOfhNBoXoYCQpTa-49" value="- description: String" style="text;strokeColor=none;fillColor=none;align=left;verticalAlign=top;spacingLeft=4;spacingRight=4;overflow=hidden;rotatable=0;points=[[0,0.5],[1,0.5]];portConstraint=eastwest;whiteSpace=wrap;html=1;" parent="9f9jRmOfhNBoXoYCQpTa-44" vertex="1">
          <mxGeometry y="52" width="170" height="26" as="geometry" />
        </mxCell>
        <mxCell id="9f9jRmOfhNBoXoYCQpTa-69" value="- totalAttempts: int" style="text;strokeColor=none;fillColor=none;align=left;verticalAlign=top;spacingLeft=4;spacingRight=4;overflow=hidden;rotatable=0;points=[[0,0.5],[1,0.5]];portConstraint=eastwest;whiteSpace=wrap;html=1;" parent="9f9jRmOfhNBoXoYCQpTa-44" vertex="1">
          <mxGeometry y="78" width="170" height="26" as="geometry" />
        </mxCell>
        <mxCell id="9f9jRmOfhNBoXoYCQpTa-70" value="- attemptN: int" style="text;strokeColor=none;fillColor=none;align=left;verticalAlign=top;spacingLeft=4;spacingRight=4;overflow=hidden;rotatable=0;points=[[0,0.5],[1,0.5]];portConstraint=eastwest;whiteSpace=wrap;html=1;" parent="9f9jRmOfhNBoXoYCQpTa-44" vertex="1">
          <mxGeometry y="104" width="170" height="26" as="geometry" />
        </mxCell>
        <mxCell id="9f9jRmOfhNBoXoYCQpTa-46" value="" style="line;strokeWidth=1;fillColor=none;align=left;verticalAlign=middle;spacingTop=-1;spacingLeft=3;spacingRight=3;rotatable=0;labelPosition=right;points=[];portConstraint=eastwest;strokeColor=inherit;" parent="9f9jRmOfhNBoXoYCQpTa-44" vertex="1">
          <mxGeometry y="130" width="170" height="8" as="geometry" />
        </mxCell>
        <mxCell id="9f9jRmOfhNBoXoYCQpTa-51" value="+ setTitle(String): void" style="text;strokeColor=none;fillColor=none;align=left;verticalAlign=top;spacingLeft=4;spacingRight=4;overflow=hidden;rotatable=0;points=[[0,0.5],[1,0.5]];portConstraint=eastwest;whiteSpace=wrap;html=1;" parent="9f9jRmOfhNBoXoYCQpTa-44" vertex="1">
          <mxGeometry y="138" width="170" height="26" as="geometry" />
        </mxCell>
        <mxCell id="9f9jRmOfhNBoXoYCQpTa-52" value="+ getTitle(): String" style="text;strokeColor=none;fillColor=none;align=left;verticalAlign=top;spacingLeft=4;spacingRight=4;overflow=hidden;rotatable=0;points=[[0,0.5],[1,0.5]];portConstraint=eastwest;whiteSpace=wrap;html=1;" parent="9f9jRmOfhNBoXoYCQpTa-44" vertex="1">
          <mxGeometry y="164" width="170" height="26" as="geometry" />
        </mxCell>
        <mxCell id="9f9jRmOfhNBoXoYCQpTa-53" value="+ setDescription(String): void" style="text;strokeColor=none;fillColor=none;align=left;verticalAlign=top;spacingLeft=4;spacingRight=4;overflow=hidden;rotatable=0;points=[[0,0.5],[1,0.5]];portConstraint=eastwest;whiteSpace=wrap;html=1;" parent="9f9jRmOfhNBoXoYCQpTa-44" vertex="1">
          <mxGeometry y="190" width="170" height="26" as="geometry" />
        </mxCell>
        <mxCell id="9f9jRmOfhNBoXoYCQpTa-54" value="+ getDescription(): String" style="text;strokeColor=none;fillColor=none;align=left;verticalAlign=top;spacingLeft=4;spacingRight=4;overflow=hidden;rotatable=0;points=[[0,0.5],[1,0.5]];portConstraint=eastwest;whiteSpace=wrap;html=1;" parent="9f9jRmOfhNBoXoYCQpTa-44" vertex="1">
          <mxGeometry y="216" width="170" height="26" as="geometry" />
        </mxCell>
        <mxCell id="9f9jRmOfhNBoXoYCQpTa-71" value="+ setTotalAttempt(int): void" style="text;strokeColor=none;fillColor=none;align=left;verticalAlign=top;spacingLeft=4;spacingRight=4;overflow=hidden;rotatable=0;points=[[0,0.5],[1,0.5]];portConstraint=eastwest;whiteSpace=wrap;html=1;" parent="9f9jRmOfhNBoXoYCQpTa-44" vertex="1">
          <mxGeometry y="242" width="170" height="26" as="geometry" />
        </mxCell>
        <mxCell id="9f9jRmOfhNBoXoYCQpTa-72" value="+ getTotalAttempt(): int" style="text;strokeColor=none;fillColor=none;align=left;verticalAlign=top;spacingLeft=4;spacingRight=4;overflow=hidden;rotatable=0;points=[[0,0.5],[1,0.5]];portConstraint=eastwest;whiteSpace=wrap;html=1;" parent="9f9jRmOfhNBoXoYCQpTa-44" vertex="1">
          <mxGeometry y="268" width="170" height="26" as="geometry" />
        </mxCell>
        <mxCell id="9f9jRmOfhNBoXoYCQpTa-73" value="+ setAttemptN(int): void" style="text;strokeColor=none;fillColor=none;align=left;verticalAlign=top;spacingLeft=4;spacingRight=4;overflow=hidden;rotatable=0;points=[[0,0.5],[1,0.5]];portConstraint=eastwest;whiteSpace=wrap;html=1;" parent="9f9jRmOfhNBoXoYCQpTa-44" vertex="1">
          <mxGeometry y="294" width="170" height="26" as="geometry" />
        </mxCell>
        <mxCell id="9f9jRmOfhNBoXoYCQpTa-74" value="+ getAttemptN(): int" style="text;strokeColor=none;fillColor=none;align=left;verticalAlign=top;spacingLeft=4;spacingRight=4;overflow=hidden;rotatable=0;points=[[0,0.5],[1,0.5]];portConstraint=eastwest;whiteSpace=wrap;html=1;" parent="9f9jRmOfhNBoXoYCQpTa-44" vertex="1">
          <mxGeometry y="320" width="170" height="26" as="geometry" />
        </mxCell>
        <mxCell id="9f9jRmOfhNBoXoYCQpTa-55" value="GameModel" style="swimlane;fontStyle=1;align=center;verticalAlign=top;childLayout=stackLayout;horizontal=1;startSize=26;horizontalStack=0;resizeParent=1;resizeParentMax=0;resizeLast=0;collapsible=1;marginBottom=0;whiteSpace=wrap;html=1;" parent="WIyWlLk6GJQsqaUBKTNV-1" vertex="1">
          <mxGeometry x="-1800" y="838" width="310" height="164" as="geometry" />
        </mxCell>
        <mxCell id="9f9jRmOfhNBoXoYCQpTa-56" value="- game: Game" style="text;strokeColor=none;fillColor=none;align=left;verticalAlign=top;spacingLeft=4;spacingRight=4;overflow=hidden;rotatable=0;points=[[0,0.5],[1,0.5]];portConstraint=eastwest;whiteSpace=wrap;html=1;" parent="9f9jRmOfhNBoXoYCQpTa-55" vertex="1">
          <mxGeometry y="26" width="310" height="26" as="geometry" />
        </mxCell>
        <mxCell id="9f9jRmOfhNBoXoYCQpTa-143" value="- hints: NumberHintsStorage" style="text;strokeColor=none;fillColor=none;align=left;verticalAlign=top;spacingLeft=4;spacingRight=4;overflow=hidden;rotatable=0;points=[[0,0.5],[1,0.5]];portConstraint=eastwest;whiteSpace=wrap;html=1;" parent="9f9jRmOfhNBoXoYCQpTa-55" vertex="1">
          <mxGeometry y="52" width="310" height="26" as="geometry" />
        </mxCell>
        <mxCell id="9f9jRmOfhNBoXoYCQpTa-58" value="" style="line;strokeWidth=1;fillColor=none;align=left;verticalAlign=middle;spacingTop=-1;spacingLeft=3;spacingRight=3;rotatable=0;labelPosition=right;points=[];portConstraint=eastwest;strokeColor=inherit;" parent="9f9jRmOfhNBoXoYCQpTa-55" vertex="1">
          <mxGeometry y="78" width="310" height="8" as="geometry" />
        </mxCell>
        <mxCell id="9f9jRmOfhNBoXoYCQpTa-62" value="+ getGame(): Game" style="text;strokeColor=none;fillColor=none;align=left;verticalAlign=top;spacingLeft=4;spacingRight=4;overflow=hidden;rotatable=0;points=[[0,0.5],[1,0.5]];portConstraint=eastwest;whiteSpace=wrap;html=1;" parent="9f9jRmOfhNBoXoYCQpTa-55" vertex="1">
          <mxGeometry y="86" width="310" height="26" as="geometry" />
        </mxCell>
        <mxCell id="9f9jRmOfhNBoXoYCQpTa-75" value="+ nextAttempt(): void" style="text;strokeColor=none;fillColor=none;align=left;verticalAlign=top;spacingLeft=4;spacingRight=4;overflow=hidden;rotatable=0;points=[[0,0.5],[1,0.5]];portConstraint=eastwest;whiteSpace=wrap;html=1;" parent="9f9jRmOfhNBoXoYCQpTa-55" vertex="1">
          <mxGeometry y="112" width="310" height="26" as="geometry" />
        </mxCell>
        <mxCell id="9f9jRmOfhNBoXoYCQpTa-66" value="+ sequenceCodeConfront(Arraylist&amp;lt;&amp;gt;, Arraylist&amp;lt;&amp;gt;): int[]" style="text;strokeColor=none;fillColor=none;align=left;verticalAlign=top;spacingLeft=4;spacingRight=4;overflow=hidden;rotatable=0;points=[[0,0.5],[1,0.5]];portConstraint=eastwest;whiteSpace=wrap;html=1;" parent="9f9jRmOfhNBoXoYCQpTa-55" vertex="1">
          <mxGeometry y="138" width="310" height="26" as="geometry" />
        </mxCell>
        <mxCell id="9f9jRmOfhNBoXoYCQpTa-63" value="&amp;lt;&amp;lt;Interface&amp;gt;&amp;gt;&lt;br&gt;SequenceEvaluation" style="swimlane;fontStyle=1;align=center;verticalAlign=top;childLayout=stackLayout;horizontal=1;startSize=40;horizontalStack=0;resizeParent=1;resizeParentMax=0;resizeLast=0;collapsible=1;marginBottom=0;whiteSpace=wrap;html=1;direction=east;" parent="WIyWlLk6GJQsqaUBKTNV-1" vertex="1">
          <mxGeometry x="-2150" y="716" width="310" height="70" as="geometry">
            <mxRectangle x="-740" y="1000" width="150" height="40" as="alternateBounds" />
          </mxGeometry>
        </mxCell>
        <mxCell id="9f9jRmOfhNBoXoYCQpTa-64" value="+ sequenceCodeConfront(Arraylist&amp;lt;&amp;gt;, Arraylist&amp;lt;&amp;gt;): int[]" style="text;strokeColor=none;fillColor=none;align=left;verticalAlign=top;spacingLeft=4;spacingRight=4;overflow=hidden;rotatable=0;points=[[0,0.5],[1,0.5]];portConstraint=eastwest;whiteSpace=wrap;html=1;" parent="9f9jRmOfhNBoXoYCQpTa-63" vertex="1">
          <mxGeometry y="40" width="310" height="30" as="geometry" />
        </mxCell>
        <mxCell id="9f9jRmOfhNBoXoYCQpTa-67" value="Use" style="endArrow=open;endSize=12;dashed=1;html=1;rounded=0;exitX=0.25;exitY=0;exitDx=0;exitDy=0;" parent="WIyWlLk6GJQsqaUBKTNV-1" source="9f9jRmOfhNBoXoYCQpTa-55" target="9f9jRmOfhNBoXoYCQpTa-44" edge="1">
          <mxGeometry x="0.0022" width="160" relative="1" as="geometry">
            <mxPoint x="-1870" y="738" as="sourcePoint" />
            <mxPoint x="-1710" y="738" as="targetPoint" />
            <Array as="points">
              <mxPoint x="-1723" y="780" />
              <mxPoint x="-1705" y="780" />
            </Array>
            <mxPoint as="offset" />
          </mxGeometry>
        </mxCell>
        <mxCell id="9f9jRmOfhNBoXoYCQpTa-68" value="" style="endArrow=block;dashed=1;endFill=0;endSize=12;html=1;rounded=0;exitX=0;exitY=0.5;exitDx=0;exitDy=0;" parent="WIyWlLk6GJQsqaUBKTNV-1" source="9f9jRmOfhNBoXoYCQpTa-62" target="9f9jRmOfhNBoXoYCQpTa-63" edge="1">
          <mxGeometry width="160" relative="1" as="geometry">
            <mxPoint x="-1930" y="718" as="sourcePoint" />
            <mxPoint x="-1770" y="718" as="targetPoint" />
            <Array as="points">
              <mxPoint x="-1995" y="937" />
            </Array>
          </mxGeometry>
        </mxCell>
        <mxCell id="9f9jRmOfhNBoXoYCQpTa-76" value="MODEL" style="shape=umlFrame;whiteSpace=wrap;html=1;pointerEvents=0;" parent="WIyWlLk6GJQsqaUBKTNV-1" vertex="1">
          <mxGeometry x="-2190" y="30" width="2150" height="1290" as="geometry" />
        </mxCell>
        <mxCell id="9f9jRmOfhNBoXoYCQpTa-77" value="MainView" style="swimlane;fontStyle=1;align=center;verticalAlign=top;childLayout=stackLayout;horizontal=1;startSize=26;horizontalStack=0;resizeParent=1;resizeParentMax=0;resizeLast=0;collapsible=1;marginBottom=0;whiteSpace=wrap;html=1;" parent="WIyWlLk6GJQsqaUBKTNV-1" vertex="1">
          <mxGeometry x="854" y="50" width="330" height="138" as="geometry" />
        </mxCell>
        <mxCell id="9f9jRmOfhNBoXoYCQpTa-79" value="" style="line;strokeWidth=1;fillColor=none;align=left;verticalAlign=middle;spacingTop=-1;spacingLeft=3;spacingRight=3;rotatable=0;labelPosition=right;points=[];portConstraint=eastwest;strokeColor=inherit;" parent="9f9jRmOfhNBoXoYCQpTa-77" vertex="1">
          <mxGeometry y="26" width="330" height="8" as="geometry" />
        </mxCell>
        <mxCell id="9f9jRmOfhNBoXoYCQpTa-116" value="+ getOptionBar(): OptionBar" style="text;strokeColor=none;fillColor=none;align=left;verticalAlign=top;spacingLeft=4;spacingRight=4;overflow=hidden;rotatable=0;points=[[0,0.5],[1,0.5]];portConstraint=eastwest;whiteSpace=wrap;html=1;" parent="9f9jRmOfhNBoXoYCQpTa-77" vertex="1">
          <mxGeometry y="34" width="330" height="26" as="geometry" />
        </mxCell>
        <mxCell id="9f9jRmOfhNBoXoYCQpTa-117" value="+ getTable(): AttemptTable" style="text;strokeColor=none;fillColor=none;align=left;verticalAlign=top;spacingLeft=4;spacingRight=4;overflow=hidden;rotatable=0;points=[[0,0.5],[1,0.5]];portConstraint=eastwest;whiteSpace=wrap;html=1;" parent="9f9jRmOfhNBoXoYCQpTa-77" vertex="1">
          <mxGeometry y="60" width="330" height="26" as="geometry" />
        </mxCell>
        <mxCell id="9f9jRmOfhNBoXoYCQpTa-157" value="+ getBoxes(): JComboBox[]" style="text;strokeColor=none;fillColor=none;align=left;verticalAlign=top;spacingLeft=4;spacingRight=4;overflow=hidden;rotatable=0;points=[[0,0.5],[1,0.5]];portConstraint=eastwest;whiteSpace=wrap;html=1;" parent="9f9jRmOfhNBoXoYCQpTa-77" vertex="1">
          <mxGeometry y="86" width="330" height="26" as="geometry" />
        </mxCell>
        <mxCell id="9f9jRmOfhNBoXoYCQpTa-155" value="+ getCheckButton(): Jbutton" style="text;strokeColor=none;fillColor=none;align=left;verticalAlign=top;spacingLeft=4;spacingRight=4;overflow=hidden;rotatable=0;points=[[0,0.5],[1,0.5]];portConstraint=eastwest;whiteSpace=wrap;html=1;" parent="9f9jRmOfhNBoXoYCQpTa-77" vertex="1">
          <mxGeometry y="112" width="330" height="26" as="geometry" />
        </mxCell>
        <mxCell id="9f9jRmOfhNBoXoYCQpTa-81" value="AttemptsTable" style="swimlane;fontStyle=1;align=center;verticalAlign=top;childLayout=stackLayout;horizontal=1;startSize=26;horizontalStack=0;resizeParent=1;resizeParentMax=0;resizeLast=0;collapsible=1;marginBottom=0;whiteSpace=wrap;html=1;" parent="WIyWlLk6GJQsqaUBKTNV-1" vertex="1">
          <mxGeometry x="574" y="270" width="290" height="112" as="geometry" />
        </mxCell>
        <mxCell id="9f9jRmOfhNBoXoYCQpTa-82" value="+ field: type" style="text;strokeColor=none;fillColor=none;align=left;verticalAlign=top;spacingLeft=4;spacingRight=4;overflow=hidden;rotatable=0;points=[[0,0.5],[1,0.5]];portConstraint=eastwest;whiteSpace=wrap;html=1;" parent="9f9jRmOfhNBoXoYCQpTa-81" vertex="1">
          <mxGeometry y="26" width="290" height="26" as="geometry" />
        </mxCell>
        <mxCell id="9f9jRmOfhNBoXoYCQpTa-83" value="" style="line;strokeWidth=1;fillColor=none;align=left;verticalAlign=middle;spacingTop=-1;spacingLeft=3;spacingRight=3;rotatable=0;labelPosition=right;points=[];portConstraint=eastwest;strokeColor=inherit;" parent="9f9jRmOfhNBoXoYCQpTa-81" vertex="1">
          <mxGeometry y="52" width="290" height="8" as="geometry" />
        </mxCell>
        <mxCell id="9f9jRmOfhNBoXoYCQpTa-84" value="+ updateAttempts(Arraylist&amp;lt;&amp;gt;): void" style="text;strokeColor=none;fillColor=none;align=left;verticalAlign=top;spacingLeft=4;spacingRight=4;overflow=hidden;rotatable=0;points=[[0,0.5],[1,0.5]];portConstraint=eastwest;whiteSpace=wrap;html=1;" parent="9f9jRmOfhNBoXoYCQpTa-81" vertex="1">
          <mxGeometry y="60" width="290" height="26" as="geometry" />
        </mxCell>
        <mxCell id="9f9jRmOfhNBoXoYCQpTa-135" value="+ updateHints(int[]): void" style="text;strokeColor=none;fillColor=none;align=left;verticalAlign=top;spacingLeft=4;spacingRight=4;overflow=hidden;rotatable=0;points=[[0,0.5],[1,0.5]];portConstraint=eastwest;whiteSpace=wrap;html=1;" parent="9f9jRmOfhNBoXoYCQpTa-81" vertex="1">
          <mxGeometry y="86" width="290" height="26" as="geometry" />
        </mxCell>
        <mxCell id="9f9jRmOfhNBoXoYCQpTa-97" value="Colors: Enum" style="swimlane;fontStyle=1;align=center;verticalAlign=top;childLayout=stackLayout;horizontal=1;startSize=26;horizontalStack=0;resizeParent=1;resizeParentMax=0;resizeLast=0;collapsible=1;marginBottom=0;whiteSpace=wrap;html=1;" parent="WIyWlLk6GJQsqaUBKTNV-1" vertex="1">
          <mxGeometry x="-829.5" y="118" width="153" height="130" as="geometry" />
        </mxCell>
        <mxCell id="9f9jRmOfhNBoXoYCQpTa-98" value="- nomeColore: String" style="text;strokeColor=none;fillColor=none;align=left;verticalAlign=top;spacingLeft=4;spacingRight=4;overflow=hidden;rotatable=0;points=[[0,0.5],[1,0.5]];portConstraint=eastwest;whiteSpace=wrap;html=1;" parent="9f9jRmOfhNBoXoYCQpTa-97" vertex="1">
          <mxGeometry y="26" width="153" height="24" as="geometry" />
        </mxCell>
        <mxCell id="9f9jRmOfhNBoXoYCQpTa-100" value="- coloreRGB: Color" style="text;strokeColor=none;fillColor=none;align=left;verticalAlign=top;spacingLeft=4;spacingRight=4;overflow=hidden;rotatable=0;points=[[0,0.5],[1,0.5]];portConstraint=eastwest;whiteSpace=wrap;html=1;" parent="9f9jRmOfhNBoXoYCQpTa-97" vertex="1">
          <mxGeometry y="50" width="153" height="24" as="geometry" />
        </mxCell>
        <mxCell id="9f9jRmOfhNBoXoYCQpTa-101" value="" style="line;strokeWidth=1;fillColor=none;align=left;verticalAlign=middle;spacingTop=-1;spacingLeft=3;spacingRight=3;rotatable=0;labelPosition=right;points=[];portConstraint=eastwest;strokeColor=inherit;" parent="9f9jRmOfhNBoXoYCQpTa-97" vertex="1">
          <mxGeometry y="74" width="153" height="8" as="geometry" />
        </mxCell>
        <mxCell id="9f9jRmOfhNBoXoYCQpTa-105" value="+ getColorName(): String" style="text;strokeColor=none;fillColor=none;align=left;verticalAlign=top;spacingLeft=4;spacingRight=4;overflow=hidden;rotatable=0;points=[[0,0.5],[1,0.5]];portConstraint=eastwest;whiteSpace=wrap;html=1;" parent="9f9jRmOfhNBoXoYCQpTa-97" vertex="1">
          <mxGeometry y="82" width="153" height="24" as="geometry" />
        </mxCell>
        <mxCell id="9f9jRmOfhNBoXoYCQpTa-106" value="+ getColor(): Color" style="text;strokeColor=none;fillColor=none;align=left;verticalAlign=top;spacingLeft=4;spacingRight=4;overflow=hidden;rotatable=0;points=[[0,0.5],[1,0.5]];portConstraint=eastwest;whiteSpace=wrap;html=1;" parent="9f9jRmOfhNBoXoYCQpTa-97" vertex="1">
          <mxGeometry y="106" width="153" height="24" as="geometry" />
        </mxCell>
        <mxCell id="9f9jRmOfhNBoXoYCQpTa-103" value="Use" style="endArrow=open;endSize=12;dashed=1;html=1;rounded=0;exitX=0.25;exitY=0;exitDx=0;exitDy=0;entryX=0;entryY=0.5;entryDx=0;entryDy=0;" parent="WIyWlLk6GJQsqaUBKTNV-1" source="9f9jRmOfhNBoXoYCQpTa-2" edge="1">
          <mxGeometry width="160" relative="1" as="geometry">
            <mxPoint x="-1300" y="340" as="sourcePoint" />
            <mxPoint x="-833" y="181.99999999999977" as="targetPoint" />
            <Array as="points">
              <mxPoint x="-990" y="182" />
            </Array>
          </mxGeometry>
        </mxCell>
        <mxCell id="9f9jRmOfhNBoXoYCQpTa-104" value="Use" style="endArrow=open;endSize=12;dashed=1;html=1;rounded=0;exitX=0.75;exitY=0;exitDx=0;exitDy=0;entryX=1;entryY=0.5;entryDx=0;entryDy=0;" parent="WIyWlLk6GJQsqaUBKTNV-1" source="9f9jRmOfhNBoXoYCQpTa-12" edge="1">
          <mxGeometry width="160" relative="1" as="geometry">
            <mxPoint x="-770" y="420" as="sourcePoint" />
            <mxPoint x="-680" y="181.99999999999977" as="targetPoint" />
            <Array as="points">
              <mxPoint x="-462" y="182" />
            </Array>
          </mxGeometry>
        </mxCell>
        <mxCell id="9f9jRmOfhNBoXoYCQpTa-108" value="1" style="endArrow=open;html=1;endSize=12;startArrow=diamondThin;startSize=14;startFill=1;edgeStyle=orthogonalEdgeStyle;align=left;verticalAlign=bottom;rounded=0;exitX=0.25;exitY=1;exitDx=0;exitDy=0;entryX=1;entryY=0.5;entryDx=0;entryDy=0;" parent="WIyWlLk6GJQsqaUBKTNV-1" source="9f9jRmOfhNBoXoYCQpTa-77" target="9f9jRmOfhNBoXoYCQpTa-82" edge="1">
          <mxGeometry x="-0.7726" y="-22" relative="1" as="geometry">
            <mxPoint x="854.0000000000002" y="308.99999999999955" as="sourcePoint" />
            <mxPoint x="814" y="280" as="targetPoint" />
            <mxPoint as="offset" />
          </mxGeometry>
        </mxCell>
        <mxCell id="9f9jRmOfhNBoXoYCQpTa-109" value="1" style="endArrow=open;html=1;endSize=12;startArrow=diamondThin;startSize=14;startFill=1;edgeStyle=orthogonalEdgeStyle;align=left;verticalAlign=bottom;rounded=0;entryX=0;entryY=0.5;entryDx=0;entryDy=0;" parent="WIyWlLk6GJQsqaUBKTNV-1" source="9f9jRmOfhNBoXoYCQpTa-77" target="9f9jRmOfhNBoXoYCQpTa-160" edge="1">
          <mxGeometry x="-0.7198" y="10" relative="1" as="geometry">
            <mxPoint x="944" y="280" as="sourcePoint" />
            <mxPoint x="1094" y="309" as="targetPoint" />
            <Array as="points">
              <mxPoint x="974" y="335" />
            </Array>
            <mxPoint as="offset" />
          </mxGeometry>
        </mxCell>
        <mxCell id="9f9jRmOfhNBoXoYCQpTa-111" value="MastermindGameController" style="swimlane;fontStyle=1;align=center;verticalAlign=top;childLayout=stackLayout;horizontal=1;startSize=26;horizontalStack=0;resizeParent=1;resizeParentMax=0;resizeLast=0;collapsible=1;marginBottom=0;whiteSpace=wrap;html=1;" parent="WIyWlLk6GJQsqaUBKTNV-1" vertex="1">
          <mxGeometry x="-366" y="-400" width="200" height="164" as="geometry" />
        </mxCell>
        <mxCell id="9f9jRmOfhNBoXoYCQpTa-112" value="- encoder: EncoderModel" style="text;strokeColor=none;fillColor=none;align=left;verticalAlign=top;spacingLeft=4;spacingRight=4;overflow=hidden;rotatable=0;points=[[0,0.5],[1,0.5]];portConstraint=eastwest;whiteSpace=wrap;html=1;" parent="9f9jRmOfhNBoXoYCQpTa-111" vertex="1">
          <mxGeometry y="26" width="200" height="26" as="geometry" />
        </mxCell>
        <mxCell id="9f9jRmOfhNBoXoYCQpTa-206" value="- decoder: DecoderModel" style="text;strokeColor=none;fillColor=none;align=left;verticalAlign=top;spacingLeft=4;spacingRight=4;overflow=hidden;rotatable=0;points=[[0,0.5],[1,0.5]];portConstraint=eastwest;whiteSpace=wrap;html=1;" parent="9f9jRmOfhNBoXoYCQpTa-111" vertex="1">
          <mxGeometry y="52" width="200" height="26" as="geometry" />
        </mxCell>
        <mxCell id="9f9jRmOfhNBoXoYCQpTa-224" value="- game: GameModel" style="text;strokeColor=none;fillColor=none;align=left;verticalAlign=top;spacingLeft=4;spacingRight=4;overflow=hidden;rotatable=0;points=[[0,0.5],[1,0.5]];portConstraint=eastwest;whiteSpace=wrap;html=1;" parent="9f9jRmOfhNBoXoYCQpTa-111" vertex="1">
          <mxGeometry y="78" width="200" height="26" as="geometry" />
        </mxCell>
        <mxCell id="9f9jRmOfhNBoXoYCQpTa-113" value="" style="line;strokeWidth=1;fillColor=none;align=left;verticalAlign=middle;spacingTop=-1;spacingLeft=3;spacingRight=3;rotatable=0;labelPosition=right;points=[];portConstraint=eastwest;strokeColor=inherit;" parent="9f9jRmOfhNBoXoYCQpTa-111" vertex="1">
          <mxGeometry y="104" width="200" height="8" as="geometry" />
        </mxCell>
        <mxCell id="9f9jRmOfhNBoXoYCQpTa-114" value="+ startGame(): void" style="text;strokeColor=none;fillColor=none;align=left;verticalAlign=top;spacingLeft=4;spacingRight=4;overflow=hidden;rotatable=0;points=[[0,0.5],[1,0.5]];portConstraint=eastwest;whiteSpace=wrap;html=1;" parent="9f9jRmOfhNBoXoYCQpTa-111" vertex="1">
          <mxGeometry y="112" width="200" height="26" as="geometry" />
        </mxCell>
        <mxCell id="9f9jRmOfhNBoXoYCQpTa-208" value="+ resetGame(): void" style="text;strokeColor=none;fillColor=none;align=left;verticalAlign=top;spacingLeft=4;spacingRight=4;overflow=hidden;rotatable=0;points=[[0,0.5],[1,0.5]];portConstraint=eastwest;whiteSpace=wrap;html=1;" parent="9f9jRmOfhNBoXoYCQpTa-111" vertex="1">
          <mxGeometry y="138" width="200" height="26" as="geometry" />
        </mxCell>
        <mxCell id="9f9jRmOfhNBoXoYCQpTa-118" value="AttemptTableModel" style="swimlane;fontStyle=1;align=center;verticalAlign=top;childLayout=stackLayout;horizontal=1;startSize=26;horizontalStack=0;resizeParent=1;resizeParentMax=0;resizeLast=0;collapsible=1;marginBottom=0;whiteSpace=wrap;html=1;" parent="WIyWlLk6GJQsqaUBKTNV-1" vertex="1">
          <mxGeometry x="214" y="270" width="160" height="294" as="geometry">
            <mxRectangle x="300" y="680" width="150" height="30" as="alternateBounds" />
          </mxGeometry>
        </mxCell>
        <mxCell id="9f9jRmOfhNBoXoYCQpTa-120" value="- columnNames: String[]" style="text;strokeColor=none;fillColor=none;align=left;verticalAlign=top;spacingLeft=4;spacingRight=4;overflow=hidden;rotatable=0;points=[[0,0.5],[1,0.5]];portConstraint=eastwest;whiteSpace=wrap;html=1;" parent="9f9jRmOfhNBoXoYCQpTa-118" vertex="1">
          <mxGeometry y="26" width="160" height="26" as="geometry" />
        </mxCell>
        <mxCell id="9f9jRmOfhNBoXoYCQpTa-121" value="- cellColors: Color[][]" style="text;strokeColor=none;fillColor=none;align=left;verticalAlign=top;spacingLeft=4;spacingRight=4;overflow=hidden;rotatable=0;points=[[0,0.5],[1,0.5]];portConstraint=eastwest;whiteSpace=wrap;html=1;" parent="9f9jRmOfhNBoXoYCQpTa-118" vertex="1">
          <mxGeometry y="52" width="160" height="26" as="geometry" />
        </mxCell>
        <mxCell id="9f9jRmOfhNBoXoYCQpTa-122" value="- hints: int[][]" style="text;strokeColor=none;fillColor=none;align=left;verticalAlign=top;spacingLeft=4;spacingRight=4;overflow=hidden;rotatable=0;points=[[0,0.5],[1,0.5]];portConstraint=eastwest;whiteSpace=wrap;html=1;" parent="9f9jRmOfhNBoXoYCQpTa-118" vertex="1">
          <mxGeometry y="78" width="160" height="26" as="geometry" />
        </mxCell>
        <mxCell id="9f9jRmOfhNBoXoYCQpTa-123" value="" style="line;strokeWidth=1;fillColor=none;align=left;verticalAlign=middle;spacingTop=-1;spacingLeft=3;spacingRight=3;rotatable=0;labelPosition=right;points=[];portConstraint=eastwest;strokeColor=inherit;" parent="9f9jRmOfhNBoXoYCQpTa-118" vertex="1">
          <mxGeometry y="104" width="160" height="8" as="geometry" />
        </mxCell>
        <mxCell id="9f9jRmOfhNBoXoYCQpTa-124" value="+&amp;nbsp;getColumnName: String" style="text;strokeColor=none;fillColor=none;align=left;verticalAlign=top;spacingLeft=4;spacingRight=4;overflow=hidden;rotatable=0;points=[[0,0.5],[1,0.5]];portConstraint=eastwest;whiteSpace=wrap;html=1;" parent="9f9jRmOfhNBoXoYCQpTa-118" vertex="1">
          <mxGeometry y="112" width="160" height="26" as="geometry" />
        </mxCell>
        <mxCell id="9f9jRmOfhNBoXoYCQpTa-125" value="+&amp;nbsp;getRowCount: int" style="text;strokeColor=none;fillColor=none;align=left;verticalAlign=top;spacingLeft=4;spacingRight=4;overflow=hidden;rotatable=0;points=[[0,0.5],[1,0.5]];portConstraint=eastwest;whiteSpace=wrap;html=1;" parent="9f9jRmOfhNBoXoYCQpTa-118" vertex="1">
          <mxGeometry y="138" width="160" height="26" as="geometry" />
        </mxCell>
        <mxCell id="9f9jRmOfhNBoXoYCQpTa-126" value="+&amp;nbsp;getColumnCount: int" style="text;strokeColor=none;fillColor=none;align=left;verticalAlign=top;spacingLeft=4;spacingRight=4;overflow=hidden;rotatable=0;points=[[0,0.5],[1,0.5]];portConstraint=eastwest;whiteSpace=wrap;html=1;" parent="9f9jRmOfhNBoXoYCQpTa-118" vertex="1">
          <mxGeometry y="164" width="160" height="26" as="geometry" />
        </mxCell>
        <mxCell id="9f9jRmOfhNBoXoYCQpTa-127" value="+&amp;nbsp;setValueAt: void" style="text;strokeColor=none;fillColor=none;align=left;verticalAlign=top;spacingLeft=4;spacingRight=4;overflow=hidden;rotatable=0;points=[[0,0.5],[1,0.5]];portConstraint=eastwest;whiteSpace=wrap;html=1;" parent="9f9jRmOfhNBoXoYCQpTa-118" vertex="1">
          <mxGeometry y="190" width="160" height="26" as="geometry" />
        </mxCell>
        <mxCell id="9f9jRmOfhNBoXoYCQpTa-128" value="+&amp;nbsp;getValueAt: Object" style="text;strokeColor=none;fillColor=none;align=left;verticalAlign=top;spacingLeft=4;spacingRight=4;overflow=hidden;rotatable=0;points=[[0,0.5],[1,0.5]];portConstraint=eastwest;whiteSpace=wrap;html=1;" parent="9f9jRmOfhNBoXoYCQpTa-118" vertex="1">
          <mxGeometry y="216" width="160" height="26" as="geometry" />
        </mxCell>
        <mxCell id="9f9jRmOfhNBoXoYCQpTa-129" value="+&amp;nbsp;setCellColor: void" style="text;strokeColor=none;fillColor=none;align=left;verticalAlign=top;spacingLeft=4;spacingRight=4;overflow=hidden;rotatable=0;points=[[0,0.5],[1,0.5]];portConstraint=eastwest;whiteSpace=wrap;html=1;" parent="9f9jRmOfhNBoXoYCQpTa-118" vertex="1">
          <mxGeometry y="242" width="160" height="26" as="geometry" />
        </mxCell>
        <mxCell id="9f9jRmOfhNBoXoYCQpTa-130" value="+&amp;nbsp;getCellColor: Color" style="text;strokeColor=none;fillColor=none;align=left;verticalAlign=top;spacingLeft=4;spacingRight=4;overflow=hidden;rotatable=0;points=[[0,0.5],[1,0.5]];portConstraint=eastwest;whiteSpace=wrap;html=1;" parent="9f9jRmOfhNBoXoYCQpTa-118" vertex="1">
          <mxGeometry y="268" width="160" height="26" as="geometry" />
        </mxCell>
        <mxCell id="9f9jRmOfhNBoXoYCQpTa-131" value="1" style="endArrow=open;html=1;endSize=12;startArrow=diamondThin;startSize=14;startFill=1;edgeStyle=orthogonalEdgeStyle;align=left;verticalAlign=bottom;rounded=0;exitX=0;exitY=0.5;exitDx=0;exitDy=0;entryX=1;entryY=0.5;entryDx=0;entryDy=0;" parent="WIyWlLk6GJQsqaUBKTNV-1" source="9f9jRmOfhNBoXoYCQpTa-82" target="9f9jRmOfhNBoXoYCQpTa-124" edge="1">
          <mxGeometry x="-0.8456" y="1" relative="1" as="geometry">
            <mxPoint x="594" y="340" as="sourcePoint" />
            <mxPoint x="754" y="340" as="targetPoint" />
            <mxPoint as="offset" />
          </mxGeometry>
        </mxCell>
        <mxCell id="9f9jRmOfhNBoXoYCQpTa-133" value="AbstractTableModel" style="swimlane;fontStyle=1;align=center;verticalAlign=top;childLayout=stackLayout;horizontal=1;startSize=26;horizontalStack=0;resizeParent=1;resizeParentMax=0;resizeLast=0;collapsible=1;marginBottom=0;whiteSpace=wrap;html=1;" parent="WIyWlLk6GJQsqaUBKTNV-1" vertex="1">
          <mxGeometry x="214" y="110" width="160" height="50" as="geometry" />
        </mxCell>
        <mxCell id="9f9jRmOfhNBoXoYCQpTa-134" value="Extends" style="endArrow=block;endSize=16;endFill=0;html=1;rounded=0;entryX=0.5;entryY=1;entryDx=0;entryDy=0;exitX=0.5;exitY=0;exitDx=0;exitDy=0;" parent="WIyWlLk6GJQsqaUBKTNV-1" source="9f9jRmOfhNBoXoYCQpTa-118" target="9f9jRmOfhNBoXoYCQpTa-133" edge="1">
          <mxGeometry width="160" relative="1" as="geometry">
            <mxPoint x="194" y="270" as="sourcePoint" />
            <mxPoint x="354" y="270" as="targetPoint" />
          </mxGeometry>
        </mxCell>
        <mxCell id="9f9jRmOfhNBoXoYCQpTa-136" value="NumberHintsStorage" style="swimlane;fontStyle=1;align=center;verticalAlign=top;childLayout=stackLayout;horizontal=1;startSize=26;horizontalStack=0;resizeParent=1;resizeParentMax=0;resizeLast=0;collapsible=1;marginBottom=0;whiteSpace=wrap;html=1;" parent="WIyWlLk6GJQsqaUBKTNV-1" vertex="1">
          <mxGeometry x="-1540" y="534" width="160" height="190" as="geometry" />
        </mxCell>
        <mxCell id="9f9jRmOfhNBoXoYCQpTa-137" value="- hints: int[][]" style="text;strokeColor=none;fillColor=none;align=left;verticalAlign=top;spacingLeft=4;spacingRight=4;overflow=hidden;rotatable=0;points=[[0,0.5],[1,0.5]];portConstraint=eastwest;whiteSpace=wrap;html=1;" parent="9f9jRmOfhNBoXoYCQpTa-136" vertex="1">
          <mxGeometry y="26" width="160" height="26" as="geometry" />
        </mxCell>
        <mxCell id="9f9jRmOfhNBoXoYCQpTa-138" value="" style="line;strokeWidth=1;fillColor=none;align=left;verticalAlign=middle;spacingTop=-1;spacingLeft=3;spacingRight=3;rotatable=0;labelPosition=right;points=[];portConstraint=eastwest;strokeColor=inherit;" parent="9f9jRmOfhNBoXoYCQpTa-136" vertex="1">
          <mxGeometry y="52" width="160" height="8" as="geometry" />
        </mxCell>
        <mxCell id="9f9jRmOfhNBoXoYCQpTa-139" value="+ setHints(int[][]): void" style="text;strokeColor=none;fillColor=none;align=left;verticalAlign=top;spacingLeft=4;spacingRight=4;overflow=hidden;rotatable=0;points=[[0,0.5],[1,0.5]];portConstraint=eastwest;whiteSpace=wrap;html=1;" parent="9f9jRmOfhNBoXoYCQpTa-136" vertex="1">
          <mxGeometry y="60" width="160" height="26" as="geometry" />
        </mxCell>
        <mxCell id="9f9jRmOfhNBoXoYCQpTa-140" value="+ getHints(): int[][]" style="text;strokeColor=none;fillColor=none;align=left;verticalAlign=top;spacingLeft=4;spacingRight=4;overflow=hidden;rotatable=0;points=[[0,0.5],[1,0.5]];portConstraint=eastwest;whiteSpace=wrap;html=1;" parent="9f9jRmOfhNBoXoYCQpTa-136" vertex="1">
          <mxGeometry y="86" width="160" height="26" as="geometry" />
        </mxCell>
        <mxCell id="9f9jRmOfhNBoXoYCQpTa-141" value="+ setHint(int[], int): void" style="text;strokeColor=none;fillColor=none;align=left;verticalAlign=top;spacingLeft=4;spacingRight=4;overflow=hidden;rotatable=0;points=[[0,0.5],[1,0.5]];portConstraint=eastwest;whiteSpace=wrap;html=1;" parent="9f9jRmOfhNBoXoYCQpTa-136" vertex="1">
          <mxGeometry y="112" width="160" height="26" as="geometry" />
        </mxCell>
        <mxCell id="9f9jRmOfhNBoXoYCQpTa-142" value="+ getHint(int, int): int" style="text;strokeColor=none;fillColor=none;align=left;verticalAlign=top;spacingLeft=4;spacingRight=4;overflow=hidden;rotatable=0;points=[[0,0.5],[1,0.5]];portConstraint=eastwest;whiteSpace=wrap;html=1;" parent="9f9jRmOfhNBoXoYCQpTa-136" vertex="1">
          <mxGeometry y="138" width="160" height="26" as="geometry" />
        </mxCell>
        <mxCell id="9f9jRmOfhNBoXoYCQpTa-145" value="+ getAttemptHints(int): int[]" style="text;strokeColor=none;fillColor=none;align=left;verticalAlign=top;spacingLeft=4;spacingRight=4;overflow=hidden;rotatable=0;points=[[0,0.5],[1,0.5]];portConstraint=eastwest;whiteSpace=wrap;html=1;" parent="9f9jRmOfhNBoXoYCQpTa-136" vertex="1">
          <mxGeometry y="164" width="160" height="26" as="geometry" />
        </mxCell>
        <mxCell id="9f9jRmOfhNBoXoYCQpTa-144" value="Use" style="endArrow=open;endSize=12;dashed=1;html=1;rounded=0;exitX=0.75;exitY=0;exitDx=0;exitDy=0;" parent="WIyWlLk6GJQsqaUBKTNV-1" source="9f9jRmOfhNBoXoYCQpTa-55" target="9f9jRmOfhNBoXoYCQpTa-136" edge="1">
          <mxGeometry width="160" relative="1" as="geometry">
            <mxPoint x="-1710" y="650" as="sourcePoint" />
            <mxPoint x="-1550" y="650" as="targetPoint" />
            <Array as="points">
              <mxPoint x="-1567" y="780" />
              <mxPoint x="-1460" y="780" />
            </Array>
          </mxGeometry>
        </mxCell>
        <mxCell id="9f9jRmOfhNBoXoYCQpTa-146" value="&amp;lt;&amp;lt;Interface&amp;gt;&amp;gt;&lt;br&gt;HintsStorage" style="swimlane;fontStyle=1;align=center;verticalAlign=top;childLayout=stackLayout;horizontal=1;startSize=40;horizontalStack=0;resizeParent=1;resizeParentMax=0;resizeLast=0;collapsible=1;marginBottom=0;whiteSpace=wrap;html=1;direction=east;" parent="WIyWlLk6GJQsqaUBKTNV-1" vertex="1">
          <mxGeometry x="-1545" y="300" width="170" height="160" as="geometry">
            <mxRectangle x="-740" y="1000" width="150" height="40" as="alternateBounds" />
          </mxGeometry>
        </mxCell>
        <mxCell id="9f9jRmOfhNBoXoYCQpTa-147" value="+ setHints(Object): void" style="text;strokeColor=none;fillColor=none;align=left;verticalAlign=top;spacingLeft=4;spacingRight=4;overflow=hidden;rotatable=0;points=[[0,0.5],[1,0.5]];portConstraint=eastwest;whiteSpace=wrap;html=1;" parent="9f9jRmOfhNBoXoYCQpTa-146" vertex="1">
          <mxGeometry y="40" width="170" height="30" as="geometry" />
        </mxCell>
        <mxCell id="9f9jRmOfhNBoXoYCQpTa-148" value="+ getHints(): Object" style="text;strokeColor=none;fillColor=none;align=left;verticalAlign=top;spacingLeft=4;spacingRight=4;overflow=hidden;rotatable=0;points=[[0,0.5],[1,0.5]];portConstraint=eastwest;whiteSpace=wrap;html=1;" parent="9f9jRmOfhNBoXoYCQpTa-146" vertex="1">
          <mxGeometry y="70" width="170" height="30" as="geometry" />
        </mxCell>
        <mxCell id="9f9jRmOfhNBoXoYCQpTa-150" value="+ setHint(Object, int): void" style="text;strokeColor=none;fillColor=none;align=left;verticalAlign=top;spacingLeft=4;spacingRight=4;overflow=hidden;rotatable=0;points=[[0,0.5],[1,0.5]];portConstraint=eastwest;whiteSpace=wrap;html=1;" parent="9f9jRmOfhNBoXoYCQpTa-146" vertex="1">
          <mxGeometry y="100" width="170" height="30" as="geometry" />
        </mxCell>
        <mxCell id="9f9jRmOfhNBoXoYCQpTa-151" value="+ getHint(): Object" style="text;strokeColor=none;fillColor=none;align=left;verticalAlign=top;spacingLeft=4;spacingRight=4;overflow=hidden;rotatable=0;points=[[0,0.5],[1,0.5]];portConstraint=eastwest;whiteSpace=wrap;html=1;" parent="9f9jRmOfhNBoXoYCQpTa-146" vertex="1">
          <mxGeometry y="130" width="170" height="30" as="geometry" />
        </mxCell>
        <mxCell id="9f9jRmOfhNBoXoYCQpTa-152" value="" style="endArrow=block;dashed=1;endFill=0;endSize=12;html=1;rounded=0;exitX=0.5;exitY=0;exitDx=0;exitDy=0;" parent="WIyWlLk6GJQsqaUBKTNV-1" source="9f9jRmOfhNBoXoYCQpTa-136" target="9f9jRmOfhNBoXoYCQpTa-146" edge="1">
          <mxGeometry width="160" relative="1" as="geometry">
            <mxPoint x="-1600" y="670" as="sourcePoint" />
            <mxPoint x="-1440" y="670" as="targetPoint" />
          </mxGeometry>
        </mxCell>
        <mxCell id="9f9jRmOfhNBoXoYCQpTa-158" value="OptionBar" style="swimlane;fontStyle=1;align=center;verticalAlign=top;childLayout=stackLayout;horizontal=1;startSize=26;horizontalStack=0;resizeParent=1;resizeParentMax=0;resizeLast=0;collapsible=1;marginBottom=0;whiteSpace=wrap;html=1;" parent="WIyWlLk6GJQsqaUBKTNV-1" vertex="1">
          <mxGeometry x="994" y="270" width="310" height="242" as="geometry">
            <mxRectangle x="300" y="680" width="150" height="30" as="alternateBounds" />
          </mxGeometry>
        </mxCell>
        <mxCell id="9f9jRmOfhNBoXoYCQpTa-159" value="- diffcultyMenu: JMenu" style="text;strokeColor=none;fillColor=none;align=left;verticalAlign=top;spacingLeft=4;spacingRight=4;overflow=hidden;rotatable=0;points=[[0,0.5],[1,0.5]];portConstraint=eastwest;whiteSpace=wrap;html=1;" parent="9f9jRmOfhNBoXoYCQpTa-158" vertex="1">
          <mxGeometry y="26" width="310" height="26" as="geometry" />
        </mxCell>
        <mxCell id="9f9jRmOfhNBoXoYCQpTa-160" value="- Easy: JRadioButton" style="text;strokeColor=none;fillColor=none;align=left;verticalAlign=top;spacingLeft=4;spacingRight=4;overflow=hidden;rotatable=0;points=[[0,0.5],[1,0.5]];portConstraint=eastwest;whiteSpace=wrap;html=1;" parent="9f9jRmOfhNBoXoYCQpTa-158" vertex="1">
          <mxGeometry y="52" width="310" height="26" as="geometry" />
        </mxCell>
        <mxCell id="9f9jRmOfhNBoXoYCQpTa-161" value="- Normal: JRadioButton" style="text;strokeColor=none;fillColor=none;align=left;verticalAlign=top;spacingLeft=4;spacingRight=4;overflow=hidden;rotatable=0;points=[[0,0.5],[1,0.5]];portConstraint=eastwest;whiteSpace=wrap;html=1;" parent="9f9jRmOfhNBoXoYCQpTa-158" vertex="1">
          <mxGeometry y="78" width="310" height="26" as="geometry" />
        </mxCell>
        <mxCell id="9f9jRmOfhNBoXoYCQpTa-162" value="- Hard: JRadioButton" style="text;strokeColor=none;fillColor=none;align=left;verticalAlign=top;spacingLeft=4;spacingRight=4;overflow=hidden;rotatable=0;points=[[0,0.5],[1,0.5]];portConstraint=eastwest;whiteSpace=wrap;html=1;" parent="9f9jRmOfhNBoXoYCQpTa-158" vertex="1">
          <mxGeometry y="104" width="310" height="26" as="geometry" />
        </mxCell>
        <mxCell id="9f9jRmOfhNBoXoYCQpTa-163" value="- confirmDifficulty: JMenuItem" style="text;strokeColor=none;fillColor=none;align=left;verticalAlign=top;spacingLeft=4;spacingRight=4;overflow=hidden;rotatable=0;points=[[0,0.5],[1,0.5]];portConstraint=eastwest;whiteSpace=wrap;html=1;" parent="9f9jRmOfhNBoXoYCQpTa-158" vertex="1">
          <mxGeometry y="130" width="310" height="26" as="geometry" />
        </mxCell>
        <mxCell id="9f9jRmOfhNBoXoYCQpTa-164" value="- difficultyGroup: ButtonGroup" style="text;strokeColor=none;fillColor=none;align=left;verticalAlign=top;spacingLeft=4;spacingRight=4;overflow=hidden;rotatable=0;points=[[0,0.5],[1,0.5]];portConstraint=eastwest;whiteSpace=wrap;html=1;" parent="9f9jRmOfhNBoXoYCQpTa-158" vertex="1">
          <mxGeometry y="156" width="310" height="26" as="geometry" />
        </mxCell>
        <mxCell id="9f9jRmOfhNBoXoYCQpTa-165" value="- difficultyLabel: JLabel" style="text;strokeColor=none;fillColor=none;align=left;verticalAlign=top;spacingLeft=4;spacingRight=4;overflow=hidden;rotatable=0;points=[[0,0.5],[1,0.5]];portConstraint=eastwest;whiteSpace=wrap;html=1;" parent="9f9jRmOfhNBoXoYCQpTa-158" vertex="1">
          <mxGeometry y="182" width="310" height="26" as="geometry" />
        </mxCell>
        <mxCell id="9f9jRmOfhNBoXoYCQpTa-167" value="" style="line;strokeWidth=1;fillColor=none;align=left;verticalAlign=middle;spacingTop=-1;spacingLeft=3;spacingRight=3;rotatable=0;labelPosition=right;points=[];portConstraint=eastwest;strokeColor=inherit;" parent="9f9jRmOfhNBoXoYCQpTa-158" vertex="1">
          <mxGeometry y="208" width="310" height="8" as="geometry" />
        </mxCell>
        <mxCell id="9f9jRmOfhNBoXoYCQpTa-169" value="+ addConfirmActionListener(ActionListener): void" style="text;strokeColor=none;fillColor=none;align=left;verticalAlign=top;spacingLeft=4;spacingRight=4;overflow=hidden;rotatable=0;points=[[0,0.5],[1,0.5]];portConstraint=eastwest;whiteSpace=wrap;html=1;" parent="9f9jRmOfhNBoXoYCQpTa-158" vertex="1">
          <mxGeometry y="216" width="310" height="26" as="geometry" />
        </mxCell>
        <mxCell id="9f9jRmOfhNBoXoYCQpTa-170" value="AbstractTableModel" style="swimlane;fontStyle=1;align=center;verticalAlign=top;childLayout=stackLayout;horizontal=1;startSize=26;horizontalStack=0;resizeParent=1;resizeParentMax=0;resizeLast=0;collapsible=1;marginBottom=0;whiteSpace=wrap;html=1;" parent="WIyWlLk6GJQsqaUBKTNV-1" vertex="1">
          <mxGeometry x="574" y="110" width="160" height="50" as="geometry" />
        </mxCell>
        <mxCell id="9f9jRmOfhNBoXoYCQpTa-171" value="Extends" style="endArrow=block;endSize=16;endFill=0;html=1;rounded=0;exitX=0.5;exitY=0;exitDx=0;exitDy=0;entryX=0.5;entryY=1;entryDx=0;entryDy=0;" parent="WIyWlLk6GJQsqaUBKTNV-1" source="9f9jRmOfhNBoXoYCQpTa-81" target="9f9jRmOfhNBoXoYCQpTa-170" edge="1">
          <mxGeometry x="-0.1429" width="160" relative="1" as="geometry">
            <mxPoint x="684" y="340" as="sourcePoint" />
            <mxPoint x="844" y="340" as="targetPoint" />
            <Array as="points">
              <mxPoint x="719" y="230" />
              <mxPoint x="654" y="230" />
            </Array>
            <mxPoint as="offset" />
          </mxGeometry>
        </mxCell>
        <mxCell id="9f9jRmOfhNBoXoYCQpTa-172" value="AttemptsTableCellRender" style="swimlane;fontStyle=1;align=center;verticalAlign=top;childLayout=stackLayout;horizontal=1;startSize=26;horizontalStack=0;resizeParent=1;resizeParentMax=0;resizeLast=0;collapsible=1;marginBottom=0;whiteSpace=wrap;html=1;" parent="WIyWlLk6GJQsqaUBKTNV-1" vertex="1">
          <mxGeometry x="254" y="790" width="160" height="50" as="geometry" />
        </mxCell>
        <mxCell id="9f9jRmOfhNBoXoYCQpTa-173" value="1" style="endArrow=open;html=1;endSize=12;startArrow=diamondThin;startSize=14;startFill=1;edgeStyle=orthogonalEdgeStyle;align=left;verticalAlign=bottom;rounded=0;entryX=1;entryY=0.5;entryDx=0;entryDy=0;exitX=0;exitY=0.5;exitDx=0;exitDy=0;" parent="WIyWlLk6GJQsqaUBKTNV-1" source="9f9jRmOfhNBoXoYCQpTa-135" target="9f9jRmOfhNBoXoYCQpTa-172" edge="1">
          <mxGeometry x="-0.924" relative="1" as="geometry">
            <mxPoint x="494" y="530" as="sourcePoint" />
            <mxPoint x="654" y="530" as="targetPoint" />
            <mxPoint as="offset" />
          </mxGeometry>
        </mxCell>
        <mxCell id="9f9jRmOfhNBoXoYCQpTa-174" value="Extends" style="endArrow=block;endSize=16;endFill=0;html=1;rounded=0;exitX=0.5;exitY=0;exitDx=0;exitDy=0;entryX=0.5;entryY=1;entryDx=0;entryDy=0;" parent="WIyWlLk6GJQsqaUBKTNV-1" source="9f9jRmOfhNBoXoYCQpTa-172" target="9f9jRmOfhNBoXoYCQpTa-175" edge="1">
          <mxGeometry width="160" relative="1" as="geometry">
            <mxPoint x="364" y="560" as="sourcePoint" />
            <mxPoint x="334" y="700" as="targetPoint" />
          </mxGeometry>
        </mxCell>
        <mxCell id="9f9jRmOfhNBoXoYCQpTa-175" value="AbstractTableModel" style="swimlane;fontStyle=1;align=center;verticalAlign=top;childLayout=stackLayout;horizontal=1;startSize=26;horizontalStack=0;resizeParent=1;resizeParentMax=0;resizeLast=0;collapsible=1;marginBottom=0;whiteSpace=wrap;html=1;" parent="WIyWlLk6GJQsqaUBKTNV-1" vertex="1">
          <mxGeometry x="254" y="640" width="160" height="50" as="geometry" />
        </mxCell>
        <mxCell id="9f9jRmOfhNBoXoYCQpTa-176" value="JLabel" style="swimlane;fontStyle=1;align=center;verticalAlign=top;childLayout=stackLayout;horizontal=1;startSize=26;horizontalStack=0;resizeParent=1;resizeParentMax=0;resizeLast=0;collapsible=1;marginBottom=0;whiteSpace=wrap;html=1;" parent="WIyWlLk6GJQsqaUBKTNV-1" vertex="1">
          <mxGeometry x="814" y="990" width="160" height="50" as="geometry" />
        </mxCell>
        <mxCell id="9f9jRmOfhNBoXoYCQpTa-177" value="TableCellRenderer" style="html=1;whiteSpace=wrap;" parent="WIyWlLk6GJQsqaUBKTNV-1" vertex="1">
          <mxGeometry x="1189" y="990" width="110" height="50" as="geometry" />
        </mxCell>
        <mxCell id="9f9jRmOfhNBoXoYCQpTa-178" value="RightPosHeaderRenderer" style="swimlane;fontStyle=1;align=center;verticalAlign=top;childLayout=stackLayout;horizontal=1;startSize=26;horizontalStack=0;resizeParent=1;resizeParentMax=0;resizeLast=0;collapsible=1;marginBottom=0;whiteSpace=wrap;html=1;" parent="WIyWlLk6GJQsqaUBKTNV-1" vertex="1">
          <mxGeometry x="1254" y="710" width="280" height="52" as="geometry" />
        </mxCell>
        <mxCell id="9f9jRmOfhNBoXoYCQpTa-179" value="+&amp;nbsp;getTableCellRendererComponent: Component" style="text;strokeColor=none;fillColor=none;align=left;verticalAlign=top;spacingLeft=4;spacingRight=4;overflow=hidden;rotatable=0;points=[[0,0.5],[1,0.5]];portConstraint=eastwest;whiteSpace=wrap;html=1;" parent="9f9jRmOfhNBoXoYCQpTa-178" vertex="1">
          <mxGeometry y="26" width="280" height="26" as="geometry" />
        </mxCell>
        <mxCell id="9f9jRmOfhNBoXoYCQpTa-180" value="WrongPosHeaderRenderer" style="swimlane;fontStyle=1;align=center;verticalAlign=top;childLayout=stackLayout;horizontal=1;startSize=26;horizontalStack=0;resizeParent=1;resizeParentMax=0;resizeLast=0;collapsible=1;marginBottom=0;whiteSpace=wrap;html=1;" parent="WIyWlLk6GJQsqaUBKTNV-1" vertex="1">
          <mxGeometry x="614" y="710" width="280" height="52" as="geometry" />
        </mxCell>
        <mxCell id="9f9jRmOfhNBoXoYCQpTa-181" value="+&amp;nbsp;getTableCellRendererComponent: Component" style="text;strokeColor=none;fillColor=none;align=left;verticalAlign=top;spacingLeft=4;spacingRight=4;overflow=hidden;rotatable=0;points=[[0,0.5],[1,0.5]];portConstraint=eastwest;whiteSpace=wrap;html=1;" parent="9f9jRmOfhNBoXoYCQpTa-180" vertex="1">
          <mxGeometry y="26" width="280" height="26" as="geometry" />
        </mxCell>
        <mxCell id="9f9jRmOfhNBoXoYCQpTa-182" value="Extends" style="endArrow=block;endSize=16;endFill=0;html=1;rounded=0;exitX=0;exitY=0.5;exitDx=0;exitDy=0;entryX=1;entryY=0.5;entryDx=0;entryDy=0;" parent="WIyWlLk6GJQsqaUBKTNV-1" source="9f9jRmOfhNBoXoYCQpTa-179" target="9f9jRmOfhNBoXoYCQpTa-176" edge="1">
          <mxGeometry x="-0.5491" width="160" relative="1" as="geometry">
            <mxPoint x="1214" y="790" as="sourcePoint" />
            <mxPoint x="1214" y="900" as="targetPoint" />
            <Array as="points">
              <mxPoint x="1234" y="749" />
              <mxPoint x="1234" y="870" />
              <mxPoint x="1034" y="1015" />
            </Array>
            <mxPoint as="offset" />
          </mxGeometry>
        </mxCell>
        <mxCell id="9f9jRmOfhNBoXoYCQpTa-183" value="Extends" style="endArrow=block;endSize=16;endFill=0;html=1;rounded=0;exitX=0;exitY=0.5;exitDx=0;exitDy=0;entryX=0;entryY=0.5;entryDx=0;entryDy=0;" parent="WIyWlLk6GJQsqaUBKTNV-1" source="9f9jRmOfhNBoXoYCQpTa-181" target="9f9jRmOfhNBoXoYCQpTa-176" edge="1">
          <mxGeometry x="0.6559" width="160" relative="1" as="geometry">
            <mxPoint x="674" y="900" as="sourcePoint" />
            <mxPoint x="854" y="1060" as="targetPoint" />
            <Array as="points">
              <mxPoint x="574" y="749" />
              <mxPoint x="574" y="1015" />
            </Array>
            <mxPoint as="offset" />
          </mxGeometry>
        </mxCell>
        <mxCell id="9f9jRmOfhNBoXoYCQpTa-184" value="Implements" style="endArrow=block;endSize=16;endFill=0;html=1;rounded=0;entryX=1;entryY=0.5;entryDx=0;entryDy=0;exitX=1;exitY=0.5;exitDx=0;exitDy=0;" parent="WIyWlLk6GJQsqaUBKTNV-1" source="9f9jRmOfhNBoXoYCQpTa-179" target="9f9jRmOfhNBoXoYCQpTa-177" edge="1">
          <mxGeometry x="0.6091" width="160" relative="1" as="geometry">
            <mxPoint x="984" y="1330" as="sourcePoint" />
            <mxPoint x="1144" y="1330" as="targetPoint" />
            <Array as="points">
              <mxPoint x="1574" y="749" />
              <mxPoint x="1574" y="1015" />
            </Array>
            <mxPoint as="offset" />
          </mxGeometry>
        </mxCell>
        <mxCell id="9f9jRmOfhNBoXoYCQpTa-185" value="Implements" style="endArrow=block;endSize=16;endFill=0;html=1;rounded=0;entryX=0;entryY=0.5;entryDx=0;entryDy=0;exitX=1;exitY=0.5;exitDx=0;exitDy=0;" parent="WIyWlLk6GJQsqaUBKTNV-1" source="9f9jRmOfhNBoXoYCQpTa-181" target="9f9jRmOfhNBoXoYCQpTa-177" edge="1">
          <mxGeometry x="-0.5604" width="160" relative="1" as="geometry">
            <mxPoint x="994" y="1219" as="sourcePoint" />
            <mxPoint x="941" y="1070" as="targetPoint" />
            <Array as="points">
              <mxPoint x="914" y="749" />
              <mxPoint x="914" y="870" />
              <mxPoint x="1134" y="1015" />
            </Array>
            <mxPoint as="offset" />
          </mxGeometry>
        </mxCell>
        <mxCell id="9f9jRmOfhNBoXoYCQpTa-186" value="MainHeaderRenderer" style="swimlane;fontStyle=1;align=center;verticalAlign=top;childLayout=stackLayout;horizontal=1;startSize=26;horizontalStack=0;resizeParent=1;resizeParentMax=0;resizeLast=0;collapsible=1;marginBottom=0;whiteSpace=wrap;html=1;" parent="WIyWlLk6GJQsqaUBKTNV-1" vertex="1">
          <mxGeometry x="946.5" y="710" width="270" height="52" as="geometry" />
        </mxCell>
        <mxCell id="9f9jRmOfhNBoXoYCQpTa-187" value="+ getTableCellRendererComponent: Component" style="text;strokeColor=none;fillColor=none;align=left;verticalAlign=top;spacingLeft=4;spacingRight=4;overflow=hidden;rotatable=0;points=[[0,0.5],[1,0.5]];portConstraint=eastwest;whiteSpace=wrap;html=1;" parent="9f9jRmOfhNBoXoYCQpTa-186" vertex="1">
          <mxGeometry y="26" width="270" height="26" as="geometry" />
        </mxCell>
        <mxCell id="9f9jRmOfhNBoXoYCQpTa-188" value="Extends" style="endArrow=block;endSize=16;endFill=0;html=1;rounded=0;exitX=0.25;exitY=1;exitDx=0;exitDy=0;entryX=0.5;entryY=0;entryDx=0;entryDy=0;" parent="WIyWlLk6GJQsqaUBKTNV-1" source="9f9jRmOfhNBoXoYCQpTa-186" target="9f9jRmOfhNBoXoYCQpTa-176" edge="1">
          <mxGeometry x="-0.6092" width="160" relative="1" as="geometry">
            <mxPoint x="974" y="880" as="sourcePoint" />
            <mxPoint x="1134" y="880" as="targetPoint" />
            <Array as="points">
              <mxPoint x="1014" y="910" />
              <mxPoint x="894" y="910" />
            </Array>
            <mxPoint as="offset" />
          </mxGeometry>
        </mxCell>
        <mxCell id="9f9jRmOfhNBoXoYCQpTa-189" value="Implements" style="endArrow=block;endSize=16;endFill=0;html=1;rounded=0;exitX=0.75;exitY=1;exitDx=0;exitDy=0;entryX=0.5;entryY=0;entryDx=0;entryDy=0;" parent="WIyWlLk6GJQsqaUBKTNV-1" source="9f9jRmOfhNBoXoYCQpTa-186" target="9f9jRmOfhNBoXoYCQpTa-177" edge="1">
          <mxGeometry x="-0.5789" width="160" relative="1" as="geometry">
            <mxPoint x="1094" y="860" as="sourcePoint" />
            <mxPoint x="1254" y="860" as="targetPoint" />
            <Array as="points">
              <mxPoint x="1149" y="910" />
              <mxPoint x="1244" y="910" />
            </Array>
            <mxPoint as="offset" />
          </mxGeometry>
        </mxCell>
        <mxCell id="9f9jRmOfhNBoXoYCQpTa-190" value="1" style="endArrow=open;html=1;endSize=12;startArrow=diamondThin;startSize=14;startFill=1;edgeStyle=orthogonalEdgeStyle;align=left;verticalAlign=bottom;rounded=0;entryX=0.5;entryY=0;entryDx=0;entryDy=0;" parent="WIyWlLk6GJQsqaUBKTNV-1" source="9f9jRmOfhNBoXoYCQpTa-81" target="9f9jRmOfhNBoXoYCQpTa-180" edge="1">
          <mxGeometry x="0.3113" y="-15" relative="1" as="geometry">
            <mxPoint x="744" y="600" as="sourcePoint" />
            <mxPoint x="904" y="600" as="targetPoint" />
            <Array as="points">
              <mxPoint x="719" y="630" />
              <mxPoint x="754" y="630" />
            </Array>
            <mxPoint as="offset" />
          </mxGeometry>
        </mxCell>
        <mxCell id="9f9jRmOfhNBoXoYCQpTa-191" value="1" style="endArrow=open;html=1;endSize=12;startArrow=diamondThin;startSize=14;startFill=1;edgeStyle=orthogonalEdgeStyle;align=left;verticalAlign=bottom;rounded=0;entryX=0.5;entryY=0;entryDx=0;entryDy=0;" parent="WIyWlLk6GJQsqaUBKTNV-1" source="9f9jRmOfhNBoXoYCQpTa-81" target="9f9jRmOfhNBoXoYCQpTa-186" edge="1">
          <mxGeometry x="-0.3541" relative="1" as="geometry">
            <mxPoint x="894" y="530" as="sourcePoint" />
            <mxPoint x="1054" y="530" as="targetPoint" />
            <Array as="points">
              <mxPoint x="719" y="590" />
              <mxPoint x="1082" y="590" />
            </Array>
            <mxPoint as="offset" />
          </mxGeometry>
        </mxCell>
        <mxCell id="9f9jRmOfhNBoXoYCQpTa-192" value="1" style="endArrow=open;html=1;endSize=12;startArrow=diamondThin;startSize=14;startFill=1;edgeStyle=orthogonalEdgeStyle;align=left;verticalAlign=bottom;rounded=0;" parent="WIyWlLk6GJQsqaUBKTNV-1" source="9f9jRmOfhNBoXoYCQpTa-81" target="9f9jRmOfhNBoXoYCQpTa-178" edge="1">
          <mxGeometry x="-0.6351" relative="1" as="geometry">
            <mxPoint x="894" y="530" as="sourcePoint" />
            <mxPoint x="1054" y="530" as="targetPoint" />
            <Array as="points">
              <mxPoint x="719" y="550" />
              <mxPoint x="1394" y="550" />
            </Array>
            <mxPoint as="offset" />
          </mxGeometry>
        </mxCell>
        <mxCell id="9f9jRmOfhNBoXoYCQpTa-199" value="EndGamePopup" style="swimlane;fontStyle=1;align=center;verticalAlign=top;childLayout=stackLayout;horizontal=1;startSize=26;horizontalStack=0;resizeParent=1;resizeParentMax=0;resizeLast=0;collapsible=1;marginBottom=0;whiteSpace=wrap;html=1;" parent="WIyWlLk6GJQsqaUBKTNV-1" vertex="1">
          <mxGeometry x="1414" y="270" width="160" height="138" as="geometry" />
        </mxCell>
        <mxCell id="9f9jRmOfhNBoXoYCQpTa-200" value="+ menuItem: JMenuItem" style="text;strokeColor=none;fillColor=none;align=left;verticalAlign=top;spacingLeft=4;spacingRight=4;overflow=hidden;rotatable=0;points=[[0,0.5],[1,0.5]];portConstraint=eastwest;whiteSpace=wrap;html=1;" parent="9f9jRmOfhNBoXoYCQpTa-199" vertex="1">
          <mxGeometry y="26" width="160" height="26" as="geometry" />
        </mxCell>
        <mxCell id="9f9jRmOfhNBoXoYCQpTa-201" value="+ p: Point" style="text;strokeColor=none;fillColor=none;align=left;verticalAlign=top;spacingLeft=4;spacingRight=4;overflow=hidden;rotatable=0;points=[[0,0.5],[1,0.5]];portConstraint=eastwest;whiteSpace=wrap;html=1;" parent="9f9jRmOfhNBoXoYCQpTa-199" vertex="1">
          <mxGeometry y="52" width="160" height="26" as="geometry" />
        </mxCell>
        <mxCell id="9f9jRmOfhNBoXoYCQpTa-202" value="" style="line;strokeWidth=1;fillColor=none;align=left;verticalAlign=middle;spacingTop=-1;spacingLeft=3;spacingRight=3;rotatable=0;labelPosition=right;points=[];portConstraint=eastwest;strokeColor=inherit;" parent="9f9jRmOfhNBoXoYCQpTa-199" vertex="1">
          <mxGeometry y="78" width="160" height="8" as="geometry" />
        </mxCell>
        <mxCell id="9f9jRmOfhNBoXoYCQpTa-203" value="+ setVictoryMessage: void" style="text;strokeColor=none;fillColor=none;align=left;verticalAlign=top;spacingLeft=4;spacingRight=4;overflow=hidden;rotatable=0;points=[[0,0.5],[1,0.5]];portConstraint=eastwest;whiteSpace=wrap;html=1;" parent="9f9jRmOfhNBoXoYCQpTa-199" vertex="1">
          <mxGeometry y="86" width="160" height="26" as="geometry" />
        </mxCell>
        <mxCell id="9f9jRmOfhNBoXoYCQpTa-204" value="+ setLooseMessage: void" style="text;strokeColor=none;fillColor=none;align=left;verticalAlign=top;spacingLeft=4;spacingRight=4;overflow=hidden;rotatable=0;points=[[0,0.5],[1,0.5]];portConstraint=eastwest;whiteSpace=wrap;html=1;" parent="9f9jRmOfhNBoXoYCQpTa-199" vertex="1">
          <mxGeometry y="112" width="160" height="26" as="geometry" />
        </mxCell>
        <mxCell id="9f9jRmOfhNBoXoYCQpTa-205" value="1" style="endArrow=open;html=1;endSize=12;startArrow=diamondThin;startSize=14;startFill=1;edgeStyle=orthogonalEdgeStyle;align=left;verticalAlign=bottom;rounded=0;entryX=0;entryY=0.5;entryDx=0;entryDy=0;" parent="WIyWlLk6GJQsqaUBKTNV-1" source="9f9jRmOfhNBoXoYCQpTa-77" target="9f9jRmOfhNBoXoYCQpTa-201" edge="1">
          <mxGeometry x="-0.9196" y="10" relative="1" as="geometry">
            <mxPoint x="1274" y="320" as="sourcePoint" />
            <mxPoint x="1434" y="320" as="targetPoint" />
            <Array as="points">
              <mxPoint x="1014" y="230" />
              <mxPoint x="1374" y="230" />
              <mxPoint x="1374" y="335" />
            </Array>
            <mxPoint as="offset" />
          </mxGeometry>
        </mxCell>
        <mxCell id="9f9jRmOfhNBoXoYCQpTa-209" value="ViewController" style="swimlane;fontStyle=1;align=center;verticalAlign=top;childLayout=stackLayout;horizontal=1;startSize=26;horizontalStack=0;resizeParent=1;resizeParentMax=0;resizeLast=0;collapsible=1;marginBottom=0;whiteSpace=wrap;html=1;" parent="WIyWlLk6GJQsqaUBKTNV-1" vertex="1">
          <mxGeometry x="-126" y="-400" width="130" height="60" as="geometry" />
        </mxCell>
        <mxCell id="9f9jRmOfhNBoXoYCQpTa-215" value="- view: MainView" style="text;strokeColor=none;fillColor=none;align=left;verticalAlign=top;spacingLeft=4;spacingRight=4;overflow=hidden;rotatable=0;points=[[0,0.5],[1,0.5]];portConstraint=eastwest;whiteSpace=wrap;html=1;" parent="9f9jRmOfhNBoXoYCQpTa-209" vertex="1">
          <mxGeometry y="26" width="130" height="26" as="geometry" />
        </mxCell>
        <mxCell id="9f9jRmOfhNBoXoYCQpTa-212" value="" style="line;strokeWidth=1;fillColor=none;align=left;verticalAlign=middle;spacingTop=-1;spacingLeft=3;spacingRight=3;rotatable=0;labelPosition=right;points=[];portConstraint=eastwest;strokeColor=inherit;" parent="9f9jRmOfhNBoXoYCQpTa-209" vertex="1">
          <mxGeometry y="52" width="130" height="8" as="geometry" />
        </mxCell>
        <mxCell id="9f9jRmOfhNBoXoYCQpTa-217" value="SettingsController" style="swimlane;fontStyle=1;align=center;verticalAlign=top;childLayout=stackLayout;horizontal=1;startSize=26;horizontalStack=0;resizeParent=1;resizeParentMax=0;resizeLast=0;collapsible=1;marginBottom=0;whiteSpace=wrap;html=1;" parent="WIyWlLk6GJQsqaUBKTNV-1" vertex="1">
          <mxGeometry x="234" y="-400" width="140" height="60" as="geometry" />
        </mxCell>
        <mxCell id="9f9jRmOfhNBoXoYCQpTa-222" value="- view: MainView" style="text;strokeColor=none;fillColor=none;align=left;verticalAlign=top;spacingLeft=4;spacingRight=4;overflow=hidden;rotatable=0;points=[[0,0.5],[1,0.5]];portConstraint=eastwest;whiteSpace=wrap;html=1;" parent="9f9jRmOfhNBoXoYCQpTa-217" vertex="1">
          <mxGeometry y="26" width="140" height="26" as="geometry" />
        </mxCell>
        <mxCell id="9f9jRmOfhNBoXoYCQpTa-219" value="" style="line;strokeWidth=1;fillColor=none;align=left;verticalAlign=middle;spacingTop=-1;spacingLeft=3;spacingRight=3;rotatable=0;labelPosition=right;points=[];portConstraint=eastwest;strokeColor=inherit;" parent="9f9jRmOfhNBoXoYCQpTa-217" vertex="1">
          <mxGeometry y="52" width="140" height="8" as="geometry" />
        </mxCell>
        <mxCell id="9f9jRmOfhNBoXoYCQpTa-220" value="TableController" style="swimlane;fontStyle=1;align=center;verticalAlign=top;childLayout=stackLayout;horizontal=1;startSize=26;horizontalStack=0;resizeParent=1;resizeParentMax=0;resizeLast=0;collapsible=1;marginBottom=0;whiteSpace=wrap;html=1;" parent="WIyWlLk6GJQsqaUBKTNV-1" vertex="1">
          <mxGeometry x="54" y="-400" width="140" height="60" as="geometry" />
        </mxCell>
        <mxCell id="9f9jRmOfhNBoXoYCQpTa-223" value="- view: MainView" style="text;strokeColor=none;fillColor=none;align=left;verticalAlign=top;spacingLeft=4;spacingRight=4;overflow=hidden;rotatable=0;points=[[0,0.5],[1,0.5]];portConstraint=eastwest;whiteSpace=wrap;html=1;" parent="9f9jRmOfhNBoXoYCQpTa-220" vertex="1">
          <mxGeometry y="26" width="140" height="26" as="geometry" />
        </mxCell>
        <mxCell id="9f9jRmOfhNBoXoYCQpTa-221" value="" style="line;strokeWidth=1;fillColor=none;align=left;verticalAlign=middle;spacingTop=-1;spacingLeft=3;spacingRight=3;rotatable=0;labelPosition=right;points=[];portConstraint=eastwest;strokeColor=inherit;" parent="9f9jRmOfhNBoXoYCQpTa-220" vertex="1">
          <mxGeometry y="52" width="140" height="8" as="geometry" />
        </mxCell>
        <mxCell id="9f9jRmOfhNBoXoYCQpTa-225" value="Main" style="swimlane;fontStyle=1;align=center;verticalAlign=top;childLayout=stackLayout;horizontal=1;startSize=26;horizontalStack=0;resizeParent=1;resizeParentMax=0;resizeLast=0;collapsible=1;marginBottom=0;whiteSpace=wrap;html=1;" parent="WIyWlLk6GJQsqaUBKTNV-1" vertex="1">
          <mxGeometry x="-540" y="-800" width="180" height="130" as="geometry" />
        </mxCell>
        <mxCell id="9f9jRmOfhNBoXoYCQpTa-226" value="- newEncoder: EncoderModel" style="text;strokeColor=none;fillColor=none;align=left;verticalAlign=top;spacingLeft=4;spacingRight=4;overflow=hidden;rotatable=0;points=[[0,0.5],[1,0.5]];portConstraint=eastwest;whiteSpace=wrap;html=1;" parent="9f9jRmOfhNBoXoYCQpTa-225" vertex="1">
          <mxGeometry y="26" width="180" height="26" as="geometry" />
        </mxCell>
        <mxCell id="9f9jRmOfhNBoXoYCQpTa-229" value="- newDecoder: DecoderModel" style="text;strokeColor=none;fillColor=none;align=left;verticalAlign=top;spacingLeft=4;spacingRight=4;overflow=hidden;rotatable=0;points=[[0,0.5],[1,0.5]];portConstraint=eastwest;whiteSpace=wrap;html=1;" parent="9f9jRmOfhNBoXoYCQpTa-225" vertex="1">
          <mxGeometry y="52" width="180" height="26" as="geometry" />
        </mxCell>
        <mxCell id="9f9jRmOfhNBoXoYCQpTa-230" value="- newGame: GameModel" style="text;strokeColor=none;fillColor=none;align=left;verticalAlign=top;spacingLeft=4;spacingRight=4;overflow=hidden;rotatable=0;points=[[0,0.5],[1,0.5]];portConstraint=eastwest;whiteSpace=wrap;html=1;" parent="9f9jRmOfhNBoXoYCQpTa-225" vertex="1">
          <mxGeometry y="78" width="180" height="26" as="geometry" />
        </mxCell>
        <mxCell id="9f9jRmOfhNBoXoYCQpTa-231" value="- mainView: MainView" style="text;strokeColor=none;fillColor=none;align=left;verticalAlign=top;spacingLeft=4;spacingRight=4;overflow=hidden;rotatable=0;points=[[0,0.5],[1,0.5]];portConstraint=eastwest;whiteSpace=wrap;html=1;" parent="9f9jRmOfhNBoXoYCQpTa-225" vertex="1">
          <mxGeometry y="104" width="180" height="26" as="geometry" />
        </mxCell>
        <mxCell id="9f9jRmOfhNBoXoYCQpTa-232" value="VIEW" style="shape=umlFrame;whiteSpace=wrap;html=1;pointerEvents=0;" parent="WIyWlLk6GJQsqaUBKTNV-1" vertex="1">
          <mxGeometry x="14" y="30" width="1640" height="1040" as="geometry" />
        </mxCell>
        <mxCell id="9f9jRmOfhNBoXoYCQpTa-233" value="CONTROLLER" style="shape=umlFrame;whiteSpace=wrap;html=1;pointerEvents=0;width=100;height=30;" parent="WIyWlLk6GJQsqaUBKTNV-1" vertex="1">
          <mxGeometry x="-376" y="-470" width="790" height="270" as="geometry" />
        </mxCell>
        <mxCell id="k682I19sJ278KLnJXbPj-0" value="&amp;lt;&amp;lt;Interface&amp;gt;&amp;gt;&lt;br&gt;SecretCodeGeneration" style="swimlane;fontStyle=1;align=center;verticalAlign=top;childLayout=stackLayout;horizontal=1;startSize=40;horizontalStack=0;resizeParent=1;resizeParentMax=0;resizeLast=0;collapsible=1;marginBottom=0;whiteSpace=wrap;html=1;direction=east;" vertex="1" parent="WIyWlLk6GJQsqaUBKTNV-1">
          <mxGeometry x="-1335" y="750" width="220" height="70" as="geometry">
            <mxRectangle x="-740" y="1000" width="150" height="40" as="alternateBounds" />
          </mxGeometry>
        </mxCell>
        <mxCell id="k682I19sJ278KLnJXbPj-1" value="+ generate(): void" style="text;strokeColor=none;fillColor=none;align=left;verticalAlign=top;spacingLeft=4;spacingRight=4;overflow=hidden;rotatable=0;points=[[0,0.5],[1,0.5]];portConstraint=eastwest;whiteSpace=wrap;html=1;" vertex="1" parent="k682I19sJ278KLnJXbPj-0">
          <mxGeometry y="40" width="220" height="30" as="geometry" />
        </mxCell>
        <mxCell id="k682I19sJ278KLnJXbPj-2" value="RandomGeneratorAdapter" style="swimlane;fontStyle=1;align=center;verticalAlign=top;childLayout=stackLayout;horizontal=1;startSize=26;horizontalStack=0;resizeParent=1;resizeParentMax=0;resizeLast=0;collapsible=1;marginBottom=0;whiteSpace=wrap;html=1;" vertex="1" parent="WIyWlLk6GJQsqaUBKTNV-1">
          <mxGeometry x="-1330" y="900" width="210" height="86" as="geometry" />
        </mxCell>
        <mxCell id="k682I19sJ278KLnJXbPj-3" value="- autoEncoder: AutoEncoderModel" style="text;strokeColor=none;fillColor=none;align=left;verticalAlign=top;spacingLeft=4;spacingRight=4;overflow=hidden;rotatable=0;points=[[0,0.5],[1,0.5]];portConstraint=eastwest;whiteSpace=wrap;html=1;" vertex="1" parent="k682I19sJ278KLnJXbPj-2">
          <mxGeometry y="26" width="210" height="26" as="geometry" />
        </mxCell>
        <mxCell id="k682I19sJ278KLnJXbPj-4" value="" style="line;strokeWidth=1;fillColor=none;align=left;verticalAlign=middle;spacingTop=-1;spacingLeft=3;spacingRight=3;rotatable=0;labelPosition=right;points=[];portConstraint=eastwest;strokeColor=inherit;" vertex="1" parent="k682I19sJ278KLnJXbPj-2">
          <mxGeometry y="52" width="210" height="8" as="geometry" />
        </mxCell>
        <mxCell id="k682I19sJ278KLnJXbPj-5" value="+ generate(): void" style="text;strokeColor=none;fillColor=none;align=left;verticalAlign=top;spacingLeft=4;spacingRight=4;overflow=hidden;rotatable=0;points=[[0,0.5],[1,0.5]];portConstraint=eastwest;whiteSpace=wrap;html=1;" vertex="1" parent="k682I19sJ278KLnJXbPj-2">
          <mxGeometry y="60" width="210" height="26" as="geometry" />
        </mxCell>
        <mxCell id="k682I19sJ278KLnJXbPj-6" value="" style="endArrow=open;endFill=1;endSize=12;html=1;rounded=0;exitX=1;exitY=0.5;exitDx=0;exitDy=0;entryX=0;entryY=0.5;entryDx=0;entryDy=0;" edge="1" parent="WIyWlLk6GJQsqaUBKTNV-1" source="k682I19sJ278KLnJXbPj-3" target="9f9jRmOfhNBoXoYCQpTa-21">
          <mxGeometry width="160" relative="1" as="geometry">
            <mxPoint x="-1250" y="660" as="sourcePoint" />
            <mxPoint x="-1090" y="660" as="targetPoint" />
          </mxGeometry>
        </mxCell>
        <mxCell id="k682I19sJ278KLnJXbPj-7" value="" style="endArrow=block;dashed=1;endFill=0;endSize=12;html=1;rounded=0;exitX=0.5;exitY=0;exitDx=0;exitDy=0;" edge="1" parent="WIyWlLk6GJQsqaUBKTNV-1" source="k682I19sJ278KLnJXbPj-2" target="k682I19sJ278KLnJXbPj-0">
          <mxGeometry width="160" relative="1" as="geometry">
            <mxPoint x="-1280" y="780" as="sourcePoint" />
            <mxPoint x="-1120" y="780" as="targetPoint" />
          </mxGeometry>
        </mxCell>
        <mxCell id="k682I19sJ278KLnJXbPj-8" value="AutoEncoderSingleton" style="swimlane;fontStyle=1;align=center;verticalAlign=top;childLayout=stackLayout;horizontal=1;startSize=26;horizontalStack=0;resizeParent=1;resizeParentMax=0;resizeLast=0;collapsible=1;marginBottom=0;whiteSpace=wrap;html=1;" vertex="1" parent="WIyWlLk6GJQsqaUBKTNV-1">
          <mxGeometry x="-1320" y="1070" width="190" height="86" as="geometry" />
        </mxCell>
        <mxCell id="k682I19sJ278KLnJXbPj-9" value="- instance: AutoEncoderModel" style="text;strokeColor=none;fillColor=none;align=left;verticalAlign=top;spacingLeft=4;spacingRight=4;overflow=hidden;rotatable=0;points=[[0,0.5],[1,0.5]];portConstraint=eastwest;whiteSpace=wrap;html=1;" vertex="1" parent="k682I19sJ278KLnJXbPj-8">
          <mxGeometry y="26" width="190" height="26" as="geometry" />
        </mxCell>
        <mxCell id="k682I19sJ278KLnJXbPj-10" value="" style="line;strokeWidth=1;fillColor=none;align=left;verticalAlign=middle;spacingTop=-1;spacingLeft=3;spacingRight=3;rotatable=0;labelPosition=right;points=[];portConstraint=eastwest;strokeColor=inherit;" vertex="1" parent="k682I19sJ278KLnJXbPj-8">
          <mxGeometry y="52" width="190" height="8" as="geometry" />
        </mxCell>
        <mxCell id="k682I19sJ278KLnJXbPj-11" value="+ method(type): type" style="text;strokeColor=none;fillColor=none;align=left;verticalAlign=top;spacingLeft=4;spacingRight=4;overflow=hidden;rotatable=0;points=[[0,0.5],[1,0.5]];portConstraint=eastwest;whiteSpace=wrap;html=1;" vertex="1" parent="k682I19sJ278KLnJXbPj-8">
          <mxGeometry y="60" width="190" height="26" as="geometry" />
        </mxCell>
      </root>
    </mxGraphModel>
  </diagram>
</mxfile>
